<?plantuml 1.2026.1?><svg xmlns="http://www.w3.org/2000/svg" xmlns:xlink="http://www.w3.org/1999/xlink" contentStyleType="text/css" data-diagram-type="SEQUENCE" height="2134px" preserveAspectRatio="none" style="width:1375px;height:2134px;background:#FCFCFD;" version="1.1" viewBox="0 0 1375 2134" width="1375px" zoomAndPan="magnify"><title>Sequence - mysql/MySqlDbSystem</title><defs/><g><rect fill="#FCFCFD" height="2134" style="stroke:none;stroke-width:1;" width="1375" x="0" y="0"/><text fill="#000000" font-family="Helvetica" font-size="14" font-weight="bold" lengthAdjust="spacing" textLength="232.627" x="577.3213" y="25.7803">Sequence - mysql/MySqlDbSystem</text><rect fill="none" height="318" rx="8" ry="8" style="stroke:#CBD5E1;stroke-width:1.5;" width="779.8174" x="458.4941" y="314"/><rect fill="none" height="146" rx="8" ry="8" style="stroke:#CBD5E1;stroke-width:1.5;" width="546.894" x="681.4175" y="451"/><rect fill="none" height="44" rx="8" ry="8" style="stroke:#CBD5E1;stroke-width:1.5;" width="526.894" x="691.4175" y="502"/><rect fill="none" height="828" rx="8" ry="8" style="stroke:#CBD5E1;stroke-width:1.5;" width="929.7754" x="438.4941" y="646"/><rect fill="none" height="64" rx="8" ry="8" style="stroke:#CBD5E1;stroke-width:1.5;" width="306.3984" x="774" y="669"/><rect fill="none" height="604" rx="8" ry="8" style="stroke:#CBD5E1;stroke-width:1.5;" width="909.7754" x="448.4941" y="835"/><rect fill="none" height="44" rx="8" ry="8" style="stroke:#CBD5E1;stroke-width:1.5;" width="409.3159" x="458.4941" y="1032"/><rect fill="none" height="172" rx="8" ry="8" style="stroke:#CBD5E1;stroke-width:1.5;" width="546.894" x="681.4175" y="1090"/><rect fill="none" height="44" rx="8" ry="8" style="stroke:#CBD5E1;stroke-width:1.5;" width="526.894" x="691.4175" y="1211"/><rect fill="none" height="44" rx="8" ry="8" style="stroke:#CBD5E1;stroke-width:1.5;" width="409.3159" x="458.4941" y="1388"/><g class="participant-lifeline" data-entity-uid="part1" data-qualified-name="Kubernetes" id="part1-lifeline"><g><title>Kubernetes</title><rect fill="#000000" fill-opacity="0.00000" height="2013" width="8" x="39.8032" y="114"/><line style="stroke:#94A3B8;stroke-width:0.5;stroke-dasharray:5,5;" x1="43" x2="43" y1="114" y2="2127"/></g></g><g class="participant-lifeline" data-entity-uid="part2" data-qualified-name="Controller" id="part2-lifeline"><g><title>Controller</title><rect fill="#000000" fill-opacity="0.00000" height="2013" width="8" x="285.5815" y="114"/><line style="stroke:#94A3B8;stroke-width:0.5;stroke-dasharray:5,5;" x1="289.2368" x2="289.2368" y1="114" y2="2127"/></g></g><g class="participant-lifeline" data-entity-uid="part3" data-qualified-name="BaseReconciler" id="part3-lifeline"><g><title>BaseReconciler</title><rect fill="#000000" fill-opacity="0.00000" height="2013" width="8" x="520.5181" y="114"/><line style="stroke:#94A3B8;stroke-width:0.5;stroke-dasharray:5,5;" x1="524.4941" x2="524.4941" y1="114" y2="2127"/></g></g><g class="participant-lifeline" data-entity-uid="part4" data-qualified-name="ServiceManager" id="part4-lifeline"><g><title>OSOKServiceManager</title><rect fill="#000000" fill-opacity="0.00000" height="2013" width="8" x="775.6138" y="114"/><line style="stroke:#94A3B8;stroke-width:0.5;stroke-dasharray:5,5;" x1="779.4175" x2="779.4175" y1="114" y2="2127"/></g></g><g class="participant-lifeline" data-entity-uid="part5" data-qualified-name="OCI" id="part5-lifeline"><g><title>OCI</title><rect fill="#000000" fill-opacity="0.00000" height="2013" width="8" x="1184.8667" y="114"/><line style="stroke:#94A3B8;stroke-width:0.5;stroke-dasharray:5,5;" x1="1188.4219" x2="1188.4219" y1="114" y2="2127"/></g></g><g class="participant-lifeline" data-entity-uid="part6" data-qualified-name="SecretStore" id="part6-lifeline"><g><title>Kubernetes Secret</title><rect fill="#000000" fill-opacity="0.00000" height="2013" width="8" x="1279.2905" y="114"/><line style="stroke:#94A3B8;stroke-width:0.5;stroke-dasharray:5,5;" x1="1282.3115" x2="1282.3115" y1="114" y2="2127"/></g></g><g class="participant participant-head" data-entity-uid="part1" data-qualified-name="Kubernetes" id="part1-head"><text fill="#000000" font-family="Helvetica" font-size="14" lengthAdjust="spacing" textLength="71.6064" x="5" y="110.7803">Kubernetes</text><ellipse cx="43.8032" cy="48.5" fill="#E2E8F0" rx="8" ry="8" style="stroke:#0F172A;stroke-width:0.5;"/><path d="M43.8032,56.5 L43.8032,83.5 M30.8032,64.5 L56.8032,64.5 M43.8032,83.5 L30.8032,98.5 M43.8032,83.5 L56.8032,98.5" fill="none" style="stroke:#0F172A;stroke-width:0.5;"/></g><g class="participant participant-head" data-entity-uid="part2" data-qualified-name="Controller" id="part2-head"><rect fill="#E2E8F0" height="28" rx="8" ry="8" style="stroke:#0F172A;stroke-width:0.5;" width="74.6895" x="252.2368" y="85"/><text fill="#0F172A" font-family="Helvetica" font-size="14" lengthAdjust="spacing" textLength="60.6895" x="259.2368" y="102.7803">Controller</text></g><g class="participant participant-head" data-entity-uid="part3" data-qualified-name="BaseReconciler" id="part3-head"><rect fill="#E2E8F0" height="28" rx="8" ry="8" style="stroke:#0F172A;stroke-width:0.5;" width="112.0479" x="468.4941" y="85"/><text fill="#0F172A" font-family="Helvetica" font-size="14" lengthAdjust="spacing" textLength="98.0479" x="475.4941" y="102.7803">BaseReconciler</text></g><g class="participant participant-head" data-entity-uid="part4" data-qualified-name="ServiceManager" id="part4-head"><rect fill="#E2E8F0" height="28" rx="8" ry="8" style="stroke:#0F172A;stroke-width:0.5;" width="156.3926" x="701.4175" y="85"/><text fill="#0F172A" font-family="Helvetica" font-size="14" lengthAdjust="spacing" textLength="142.3926" x="708.4175" y="102.7803">OSOKServiceManager</text></g><g class="participant participant-head" data-entity-uid="part5" data-qualified-name="OCI" id="part5-head"><rect fill="#E2E8F0" height="28" rx="8" ry="8" style="stroke:#0F172A;stroke-width:0.5;" width="38.8896" x="1169.4219" y="85"/><text fill="#0F172A" font-family="Helvetica" font-size="14" lengthAdjust="spacing" textLength="24.8896" x="1176.4219" y="102.7803">OCI</text></g><g class="participant participant-head" data-entity-uid="part6" data-qualified-name="SecretStore" id="part6-head"><rect fill="#E2E8F0" height="28" rx="8" ry="8" style="stroke:#0F172A;stroke-width:0.5;" width="129.958" x="1218.3115" y="85"/><text fill="#0F172A" font-family="Helvetica" font-size="14" lengthAdjust="spacing" textLength="115.958" x="1225.3115" y="102.7803">Kubernetes Secret</text></g><path d="M459,137 L459,187 A8,8 0 0 0 467,195 L835,195 A8,8 0 0 0 843,187 L843,139 L833,129 L467,129 A8,8 0 0 0 459,137" fill="#FFF7D6" style="stroke:#B45309;stroke-width:0.5;"/><path d="M833,129 L833,135 A4,4 0 0 0 837,139 L843,139 L833,129" fill="#FFF7D6" style="stroke:#B45309;stroke-width:0.5;"/><text fill="#334155" font-family="Helvetica" font-size="14" lengthAdjust="spacing" textLength="111.2891" x="492.9622" y="144.7803">shared resolution:</text><text fill="#334155" font-family="Helvetica" font-size="14" lengthAdjust="spacing" textLength="307.3916" x="492.9622" y="158.7803">shared/diagrams/shared-resolution-sequence.svg</text><text fill="#334155" font-family="Helvetica" font-size="14" lengthAdjust="spacing" textLength="88.7305" x="492.9622" y="172.7803">shared delete:</text><text fill="#334155" font-family="Helvetica" font-size="14" lengthAdjust="spacing" textLength="284.833" x="492.9622" y="186.7803">shared/diagrams/shared-delete-sequence.svg</text><g class="message" data-entity-1="part1" data-entity-2="part2" id="msg1"><polygon fill="#0F172A" points="277.5815,216,287.5815,220,277.5815,224,281.5815,220" style="stroke:#0F172A;stroke-width:1;"/><line style="stroke:#0F172A;stroke-width:1;" x1="43.8032" x2="283.5815" y1="220" y2="220"/><text fill="#000000" font-family="Helvetica" font-size="14" lengthAdjust="spacing" textLength="221.7783" x="50.8032" y="214.7803">enqueue MySqlDbSystem reconcile</text></g><g class="message" data-entity-1="part2" data-entity-2="part3" id="msg2"><polygon fill="#0F172A" points="512.5181,244,522.5181,248,512.5181,252,516.5181,248" style="stroke:#0F172A;stroke-width:1;"/><line style="stroke:#0F172A;stroke-width:1;" x1="289.5815" x2="518.5181" y1="248" y2="248"/><text fill="#000000" font-family="Helvetica" font-size="14" lengthAdjust="spacing" textLength="117.4961" x="296.5815" y="242.7803">Reconcile(request)</text></g><g class="message" data-entity-1="part3" data-entity-2="part4" id="msg3"><polygon fill="#0F172A" points="767.6138,272,777.6138,276,767.6138,280,771.6138,276" style="stroke:#0F172A;stroke-width:1;"/><line style="stroke:#0F172A;stroke-width:1;" x1="524.5181" x2="773.6138" y1="276" y2="276"/><text fill="#000000" font-family="Helvetica" font-size="14" lengthAdjust="spacing" textLength="213.1924" x="531.5181" y="270.7803">reconcile desired MySqlDbSystem</text></g><path d="M466.4941,314 L519.832,314 L519.832,320 L509.832,330 L458.4941,330 L458.4941,322 A8,8 0 0 1 466.4941,314" fill="#F8FAFC" style="stroke:#CBD5E1;stroke-width:1.5;"/><rect fill="none" height="318" rx="8" ry="8" style="stroke:#CBD5E1;stroke-width:1.5;" width="779.8174" x="458.4941" y="314"/><text fill="#000000" font-family="Helvetica" font-size="14" font-weight="bold" lengthAdjust="spacing" textLength="16.3379" x="473.4941" y="325.7803">alt</text><text fill="#000000" font-family="Helvetica" font-size="14" font-weight="bold" lengthAdjust="spacing" textLength="308.1094" x="534.832" y="326.7803">[tracked or explicit OCI identity already exists]</text><g class="message" data-entity-1="part4" data-entity-2="part5" id="msg4"><polygon fill="#0F172A" points="1176.8667,346,1186.8667,350,1176.8667,354,1180.8667,350" style="stroke:#0F172A;stroke-width:1;"/><line style="stroke:#0F172A;stroke-width:1;" x1="779.6138" x2="1182.8667" y1="350" y2="350"/><text fill="#000000" font-family="Helvetica" font-size="14" lengthAdjust="spacing" textLength="87.1377" x="786.6138" y="344.7803">GetDbSystem</text></g><line style="stroke:#CBD5E1;stroke-width:1;stroke-dasharray:2,2;" x1="458.4941" x2="1238.3115" y1="359" y2="359"/><text fill="#000000" font-family="Helvetica" font-size="14" font-weight="bold" lengthAdjust="spacing" textLength="185.1582" x="463.4941" y="369.7803">[tracked identity is missing]</text><g class="message" data-entity-1="part4" data-entity-2="part5" id="msg5"><polygon fill="#0F172A" points="1176.8667,432,1186.8667,436,1176.8667,440,1180.8667,436" style="stroke:#0F172A;stroke-width:1;"/><line style="stroke:#0F172A;stroke-width:1;" x1="779.6138" x2="1182.8667" y1="436" y2="436"/><text fill="#000000" font-family="Helvetica" font-size="14" lengthAdjust="spacing" textLength="135.3584" x="786.6138" y="388.7803">ListDbSystems(filters:</text><text fill="#000000" font-family="Helvetica" font-size="14" lengthAdjust="spacing" textLength="210.8955" x="786.6138" y="402.7803">compartment_id, configuration_id,</text><text fill="#000000" font-family="Helvetica" font-size="14" lengthAdjust="spacing" textLength="241.2676" x="786.6138" y="416.7803">database_management, db_system_id</text><text fill="#000000" font-family="Helvetica" font-size="14" lengthAdjust="spacing" textLength="65.7344" x="786.6138" y="430.7803">(+4 more))</text></g><path d="M689.4175,451 L742.7554,451 L742.7554,457 L732.7554,467 L681.4175,467 L681.4175,459 A8,8 0 0 1 689.4175,451" fill="#F8FAFC" style="stroke:#CBD5E1;stroke-width:1.5;"/><rect fill="none" height="146" rx="8" ry="8" style="stroke:#CBD5E1;stroke-width:1.5;" width="546.894" x="681.4175" y="451"/><text fill="#000000" font-family="Helvetica" font-size="14" font-weight="bold" lengthAdjust="spacing" textLength="16.3379" x="696.4175" y="462.7803">alt</text><text fill="#000000" font-family="Helvetica" font-size="14" font-weight="bold" lengthAdjust="spacing" textLength="242.7031" x="757.7554" y="463.7803">[reusable OCI resource is not found]</text><g class="message" data-entity-1="part4" data-entity-2="part5" id="msg6"><polygon fill="#0F172A" points="1176.8667,483,1186.8667,487,1176.8667,491,1180.8667,487" style="stroke:#0F172A;stroke-width:1;"/><line style="stroke:#0F172A;stroke-width:1;" x1="779.6138" x2="1182.8667" y1="487" y2="487"/><text fill="#000000" font-family="Helvetica" font-size="14" lengthAdjust="spacing" textLength="106.5928" x="786.6138" y="481.7803">CreateDbSystem</text></g><path d="M699.4175,502 L765.9624,502 L765.9624,508 L755.9624,518 L691.4175,518 L691.4175,510 A8,8 0 0 1 699.4175,502" fill="#F8FAFC" style="stroke:#CBD5E1;stroke-width:1.5;"/><rect fill="none" height="44" rx="8" ry="8" style="stroke:#CBD5E1;stroke-width:1.5;" width="526.894" x="691.4175" y="502"/><text fill="#000000" font-family="Helvetica" font-size="14" font-weight="bold" lengthAdjust="spacing" textLength="29.5449" x="706.4175" y="513.7803">loop</text><text fill="#000000" font-family="Helvetica" font-size="14" font-weight="bold" lengthAdjust="spacing" textLength="266.793" x="780.9624" y="514.7803">[create pending CREATING, UPDATING]</text><g class="message" data-entity-1="part4" data-entity-2="part5" id="msg7"><polygon fill="#0F172A" points="1176.8667,534,1186.8667,538,1176.8667,542,1180.8667,538" style="stroke:#0F172A;stroke-width:1;"/><line style="stroke:#0F172A;stroke-width:1;" x1="779.6138" x2="1182.8667" y1="538" y2="538"/><text fill="#000000" font-family="Helvetica" font-size="14" lengthAdjust="spacing" textLength="87.1377" x="786.6138" y="532.7803">GetDbSystem</text></g><line style="stroke:#CBD5E1;stroke-width:1;stroke-dasharray:2,2;" x1="681.4175" x2="1228.3115" y1="554" y2="554"/><text fill="#000000" font-family="Helvetica" font-size="14" font-weight="bold" lengthAdjust="spacing" textLength="255.2334" x="686.4175" y="564.7803">[reusable OCI resource already exists]</text><g class="message" data-entity-1="part4" data-entity-2="part5" id="msg8"><polygon fill="#0F172A" points="1176.8667,585,1186.8667,589,1176.8667,593,1180.8667,589" style="stroke:#0F172A;stroke-width:1;"/><line style="stroke:#0F172A;stroke-width:1;" x1="779.6138" x2="1182.8667" y1="589" y2="589"/><text fill="#000000" font-family="Helvetica" font-size="14" lengthAdjust="spacing" textLength="87.1377" x="786.6138" y="583.7803">GetDbSystem</text></g><g class="message" data-entity-1="part4" data-entity-2="part3" id="msg9"><polygon fill="#0F172A" points="535.5181,620,525.5181,624,535.5181,628,531.5181,624" style="stroke:#0F172A;stroke-width:1;"/><line style="stroke:#0F172A;stroke-width:1;stroke-dasharray:2,2;" x1="529.5181" x2="778.6138" y1="624" y2="624"/><text fill="#000000" font-family="Helvetica" font-size="14" lengthAdjust="spacing" textLength="231.0957" x="541.5181" y="618.7803">persist resolved OCI identity in status</text></g><path d="M446.4941,646 L499.832,646 L499.832,652 L489.832,662 L438.4941,662 L438.4941,654 A8,8 0 0 1 446.4941,646" fill="#F8FAFC" style="stroke:#CBD5E1;stroke-width:1.5;"/><rect fill="none" height="828" rx="8" ry="8" style="stroke:#CBD5E1;stroke-width:1.5;" width="929.7754" x="438.4941" y="646"/><text fill="#000000" font-family="Helvetica" font-size="14" font-weight="bold" lengthAdjust="spacing" textLength="16.3379" x="453.4941" y="657.7803">alt</text><text fill="#000000" font-family="Helvetica" font-size="14" font-weight="bold" lengthAdjust="spacing" textLength="120.5859" x="514.832" y="658.7803">[delete requested]</text><path d="M782,669 L861.0205,669 L861.0205,675 L851.0205,685 L774,685 L774,677 A8,8 0 0 1 782,669" fill="#F8FAFC" style="stroke:#CBD5E1;stroke-width:1.5;"/><rect fill="none" height="64" rx="8" ry="8" style="stroke:#CBD5E1;stroke-width:1.5;" width="306.3984" x="774" y="669"/><text fill="#000000" font-family="Helvetica" font-size="14" font-weight="bold" lengthAdjust="spacing" textLength="42.0205" x="789" y="680.7803">Delete</text><path d="M784,698 L784,720 A8,8 0 0 0 792,728 L1062,728 A8,8 0 0 0 1070,720 L1070,700 L1060,690 L792,690 A8,8 0 0 0 784,698" fill="#FFF7D6" style="stroke:#B45309;stroke-width:0.5;"/><path d="M1060,690 L1060,696 A4,4 0 0 0 1064,700 L1070,700 L1060,690" fill="#FFF7D6" style="stroke:#B45309;stroke-width:0.5;"/><text fill="#334155" font-family="Helvetica" font-size="14" lengthAdjust="spacing" textLength="265.3984" x="790" y="705.7803">delete remains repo-authored unsupported</text><text fill="#334155" font-family="Helvetica" font-size="14" lengthAdjust="spacing" textLength="154.0752" x="790" y="719.7803">despite DeleteDbSystem</text><line style="stroke:#CBD5E1;stroke-width:1;stroke-dasharray:2,2;" x1="438.4941" x2="1368.2695" y1="741" y2="741"/><text fill="#000000" font-family="Helvetica" font-size="14" font-weight="bold" lengthAdjust="spacing" textLength="149.3857" x="443.4941" y="751.7803">[OCI state is retryable]</text><g class="message" data-entity-1="part4" data-entity-2="part3" id="msg10"><polygon fill="#0F172A" points="535.5181,786,525.5181,790,535.5181,794,531.5181,790" style="stroke:#0F172A;stroke-width:1;"/><line style="stroke:#0F172A;stroke-width:1;stroke-dasharray:2,2;" x1="529.5181" x2="778.6138" y1="790" y2="790"/><text fill="#000000" font-family="Helvetica" font-size="14" lengthAdjust="spacing" textLength="184.4199" x="541.5181" y="770.7803">requeue while OCI remains in</text><text fill="#000000" font-family="Helvetica" font-size="14" lengthAdjust="spacing" textLength="230.248" x="541.5181" y="784.7803">CREATING, UPDATING, DELETING</text></g><line style="stroke:#CBD5E1;stroke-width:1;stroke-dasharray:2,2;" x1="438.4941" x2="1368.2695" y1="799" y2="799"/><text fill="#000000" font-family="Helvetica" font-size="14" font-weight="bold" lengthAdjust="spacing" textLength="200.751" x="443.4941" y="809.7803">[live state requires field-aware</text><text fill="#000000" font-family="Helvetica" font-size="14" font-weight="bold" lengthAdjust="spacing" textLength="105.0068" x="443.4941" y="823.7803">drift evaluation]</text><path d="M456.4941,835 L584.4805,835 L584.4805,841 L574.4805,851 L448.4941,851 L448.4941,843 A8,8 0 0 1 456.4941,835" fill="#F8FAFC" style="stroke:#CBD5E1;stroke-width:1.5;"/><rect fill="none" height="604" rx="8" ry="8" style="stroke:#CBD5E1;stroke-width:1.5;" width="909.7754" x="448.4941" y="835"/><text fill="#000000" font-family="Helvetica" font-size="14" font-weight="bold" lengthAdjust="spacing" textLength="90.9863" x="463.4941" y="846.7803">Drift handling</text><path d="M733,864 L733,1012 A8,8 0 0 0 741,1020 L1226,1020 A8,8 0 0 0 1234,1012 L1234,866 L1224,856 L741,856 A8,8 0 0 0 733,864" fill="#FFF7D6" style="stroke:#B45309;stroke-width:0.5;"/><path d="M1224,856 L1224,862 A4,4 0 0 0 1228,866 L1234,866 L1224,856" fill="#FFF7D6" style="stroke:#B45309;stroke-width:0.5;"/><text fill="#334155" font-family="Helvetica" font-size="14" lengthAdjust="spacing" textLength="259.1641" x="786.8206" y="871.7803">Supported update surface: access_mode,</text><text fill="#334155" font-family="Helvetica" font-size="14" lengthAdjust="spacing" textLength="385.2529" x="786.8206" y="885.7803">backup_policy.copy_policies.backup_copy_retention_in_days,</text><text fill="#334155" font-family="Helvetica" font-size="14" lengthAdjust="spacing" textLength="280.1777" x="786.8206" y="899.7803">backup_policy.copy_policies.copy_to_region,</text><text fill="#334155" font-family="Helvetica" font-size="14" lengthAdjust="spacing" textLength="245.54" x="786.8206" y="913.7803">backup_policy.defined_tags (+50 more)</text><text fill="#334155" font-family="Helvetica" font-size="14" lengthAdjust="spacing" textLength="235.7783" x="786.8206" y="927.7803">Reject before mutate: force-new fields</text><text fill="#334155" font-family="Helvetica" font-size="14" lengthAdjust="spacing" textLength="225.6748" x="786.8206" y="941.7803">admin_password, admin_username,</text><text fill="#334155" font-family="Helvetica" font-size="14" lengthAdjust="spacing" textLength="258.7471" x="786.8206" y="955.7803">availability_domain, compartment_id (+12</text><text fill="#334155" font-family="Helvetica" font-size="14" lengthAdjust="spacing" textLength="36.5586" x="786.8206" y="969.7803">more)</text><text fill="#334155" font-family="Helvetica" font-size="14" lengthAdjust="spacing" textLength="195.3164" x="786.8206" y="983.7803">Lookup filters: compartment_id,</text><text fill="#334155" font-family="Helvetica" font-size="14" lengthAdjust="spacing" textLength="257.626" x="786.8206" y="997.7803">configuration_id, database_management,</text><text fill="#334155" font-family="Helvetica" font-size="14" lengthAdjust="spacing" textLength="151.3408" x="786.8206" y="1011.7803">db_system_id (+4 more)</text><path d="M466.4941,1032 L525.2598,1032 L525.2598,1038 L515.2598,1048 L458.4941,1048 L458.4941,1040 A8,8 0 0 1 466.4941,1032" fill="#F8FAFC" style="stroke:#CBD5E1;stroke-width:1.5;"/><rect fill="none" height="44" rx="8" ry="8" style="stroke:#CBD5E1;stroke-width:1.5;" width="409.3159" x="458.4941" y="1032"/><text fill="#000000" font-family="Helvetica" font-size="14" font-weight="bold" lengthAdjust="spacing" textLength="21.7656" x="473.4941" y="1043.7803">opt</text><text fill="#000000" font-family="Helvetica" font-size="14" font-weight="bold" lengthAdjust="spacing" textLength="276.1309" x="540.2598" y="1044.7803">[force-new or conflicting drift is detected]</text><g class="message" data-entity-1="part4" data-entity-2="part3" id="msg11"><polygon fill="#0F172A" points="535.5181,1064,525.5181,1068,535.5181,1072,531.5181,1068" style="stroke:#0F172A;stroke-width:1;"/><line style="stroke:#0F172A;stroke-width:1;stroke-dasharray:2,2;" x1="529.5181" x2="778.6138" y1="1068" y2="1068"/><text fill="#000000" font-family="Helvetica" font-size="14" lengthAdjust="spacing" textLength="164.1855" x="541.5181" y="1062.7803">reject before OCI mutation</text></g><path d="M689.4175,1090 L748.1831,1090 L748.1831,1096 L738.1831,1106 L681.4175,1106 L681.4175,1098 A8,8 0 0 1 689.4175,1090" fill="#F8FAFC" style="stroke:#CBD5E1;stroke-width:1.5;"/><rect fill="none" height="172" rx="8" ry="8" style="stroke:#CBD5E1;stroke-width:1.5;" width="546.894" x="681.4175" y="1090"/><text fill="#000000" font-family="Helvetica" font-size="14" font-weight="bold" lengthAdjust="spacing" textLength="21.7656" x="696.4175" y="1101.7803">opt</text><text fill="#000000" font-family="Helvetica" font-size="14" font-weight="bold" lengthAdjust="spacing" textLength="243.4619" x="763.1831" y="1102.7803">[supported mutable drift is detected]</text><g class="message" data-entity-1="part4" data-entity-2="part5" id="msg12"><polygon fill="#0F172A" points="1176.8667,1192,1186.8667,1196,1176.8667,1200,1180.8667,1196" style="stroke:#0F172A;stroke-width:1;"/><line style="stroke:#0F172A;stroke-width:1;" x1="779.6138" x2="1182.8667" y1="1196" y2="1196"/><text fill="#000000" font-family="Helvetica" font-size="14" lengthAdjust="spacing" textLength="198.4268" x="786.6138" y="1120.7803">Apply UpdateDbSystem only for</text><text fill="#000000" font-family="Helvetica" font-size="14" lengthAdjust="spacing" textLength="180.5371" x="786.6138" y="1134.7803">mutable fields access_mode,</text><text fill="#000000" font-family="Helvetica" font-size="14" lengthAdjust="spacing" textLength="385.2529" x="786.6138" y="1148.7803">backup_policy.copy_policies.backup_copy_retention_in_days,</text><text fill="#000000" font-family="Helvetica" font-size="14" lengthAdjust="spacing" textLength="280.1777" x="786.6138" y="1162.7803">backup_policy.copy_policies.copy_to_region,</text><text fill="#000000" font-family="Helvetica" font-size="14" lengthAdjust="spacing" textLength="205.0918" x="786.6138" y="1176.7803">backup_policy.defined_tags (+50</text><text fill="#000000" font-family="Helvetica" font-size="14" lengthAdjust="spacing" textLength="36.5586" x="786.6138" y="1190.7803">more)</text></g><path d="M699.4175,1211 L765.9624,1211 L765.9624,1217 L755.9624,1227 L691.4175,1227 L691.4175,1219 A8,8 0 0 1 699.4175,1211" fill="#F8FAFC" style="stroke:#CBD5E1;stroke-width:1.5;"/><rect fill="none" height="44" rx="8" ry="8" style="stroke:#CBD5E1;stroke-width:1.5;" width="526.894" x="691.4175" y="1211"/><text fill="#000000" font-family="Helvetica" font-size="14" font-weight="bold" lengthAdjust="spacing" textLength="29.5449" x="706.4175" y="1222.7803">loop</text><text fill="#000000" font-family="Helvetica" font-size="14" font-weight="bold" lengthAdjust="spacing" textLength="190.5381" x="780.9624" y="1223.7803">[update pending UPDATING]</text><g class="message" data-entity-1="part4" data-entity-2="part5" id="msg13"><polygon fill="#0F172A" points="1176.8667,1243,1186.8667,1247,1176.8667,1251,1180.8667,1247" style="stroke:#0F172A;stroke-width:1;"/><line style="stroke:#0F172A;stroke-width:1;" x1="779.6138" x2="1182.8667" y1="1247" y2="1247"/><text fill="#000000" font-family="Helvetica" font-size="14" lengthAdjust="spacing" textLength="87.1377" x="786.6138" y="1241.7803">GetDbSystem</text></g><g class="message" data-entity-1="part4" data-entity-2="part5" id="msg14"><polygon fill="#0F172A" points="1176.8667,1327,1186.8667,1331,1176.8667,1335,1180.8667,1331" style="stroke:#0F172A;stroke-width:1;"/><line style="stroke:#0F172A;stroke-width:1;" x1="779.6138" x2="1182.8667" y1="1331" y2="1331"/><text fill="#000000" font-family="Helvetica" font-size="14" lengthAdjust="spacing" textLength="104.2891" x="786.6138" y="1283.7803">run helper hooks</text><text fill="#000000" font-family="Helvetica" font-size="14" lengthAdjust="spacing" textLength="219.0508" x="786.6138" y="1297.7803">create=tfresource.CreateResource;</text><text fill="#000000" font-family="Helvetica" font-size="14" lengthAdjust="spacing" textLength="226.085" x="786.6138" y="1311.7803">update=tfresource.UpdateResource;</text><text fill="#000000" font-family="Helvetica" font-size="14" lengthAdjust="spacing" textLength="212.8438" x="786.6138" y="1325.7803">delete=tfresource.DeleteResource</text></g><g class="message" data-entity-1="part4" data-entity-2="part6" id="msg15"><polygon fill="#0F172A" points="1271.2905,1369,1281.2905,1373,1271.2905,1377,1275.2905,1373" style="stroke:#0F172A;stroke-width:1;"/><line style="stroke:#0F172A;stroke-width:1;" x1="779.6138" x2="1277.2905" y1="1373" y2="1373"/><text fill="#000000" font-family="Helvetica" font-size="14" lengthAdjust="spacing" textLength="220.2334" x="786.6138" y="1353.7803">read required input secret and write</text><text fill="#000000" font-family="Helvetica" font-size="14" lengthAdjust="spacing" textLength="178.9854" x="786.6138" y="1367.7803">ready-only connection secret</text></g><path d="M466.4941,1388 L519.832,1388 L519.832,1394 L509.832,1404 L458.4941,1404 L458.4941,1396 A8,8 0 0 1 466.4941,1388" fill="#F8FAFC" style="stroke:#CBD5E1;stroke-width:1.5;"/><rect fill="none" height="44" rx="8" ry="8" style="stroke:#CBD5E1;stroke-width:1.5;" width="409.3159" x="458.4941" y="1388"/><text fill="#000000" font-family="Helvetica" font-size="14" font-weight="bold" lengthAdjust="spacing" textLength="16.3379" x="473.4941" y="1399.7803">alt</text><text fill="#000000" font-family="Helvetica" font-size="14" font-weight="bold" lengthAdjust="spacing" textLength="119.834" x="534.832" y="1400.7803">[Secret sync fails]</text><g class="message" data-entity-1="part4" data-entity-2="part3" id="msg16"><polygon fill="#0F172A" points="535.5181,1420,525.5181,1424,535.5181,1428,531.5181,1424" style="stroke:#0F172A;stroke-width:1;"/><line style="stroke:#0F172A;stroke-width:1;stroke-dasharray:2,2;" x1="529.5181" x2="778.6138" y1="1424" y2="1424"/><text fill="#000000" font-family="Helvetica" font-size="14" lengthAdjust="spacing" textLength="146.2822" x="541.5181" y="1418.7803">block success and retry</text></g><g class="message" data-entity-1="part4" data-entity-2="part3" id="msg17"><polygon fill="#0F172A" points="535.5181,1462,525.5181,1466,535.5181,1470,531.5181,1466" style="stroke:#0F172A;stroke-width:1;"/><line style="stroke:#0F172A;stroke-width:1;stroke-dasharray:2,2;" x1="529.5181" x2="778.6138" y1="1466" y2="1466"/><text fill="#000000" font-family="Helvetica" font-size="14" lengthAdjust="spacing" textLength="186.7852" x="541.5181" y="1460.7803">status=manual, finalizer=none</text></g><g class="message" data-entity-1="part3" data-entity-2="part2" id="msg18"><polygon fill="#0F172A" points="300.5815,1497,290.5815,1501,300.5815,1505,296.5815,1501" style="stroke:#0F172A;stroke-width:1;"/><line style="stroke:#0F172A;stroke-width:1;stroke-dasharray:2,2;" x1="294.5815" x2="523.5181" y1="1501" y2="1501"/><text fill="#000000" font-family="Helvetica" font-size="14" lengthAdjust="spacing" textLength="210.9365" x="306.5815" y="1495.7803">requeue on provisioning, updating</text></g><path d="M784,1522 L784,2104 A8,8 0 0 0 792,2112 L1182,2112 A8,8 0 0 0 1190,2104 L1190,1524 L1180,1514 L792,1514 A8,8 0 0 0 784,1522" fill="#FFF7D6" style="stroke:#B45309;stroke-width:0.5;"/><path d="M1180,1514 L1180,1520 A4,4 0 0 0 1184,1524 L1190,1524 L1180,1514" fill="#FFF7D6" style="stroke:#B45309;stroke-width:0.5;"/><text fill="#334155" font-family="Helvetica" font-size="14" lengthAdjust="spacing" textLength="101.165" x="790" y="1529.7803">shared diagram:</text><text fill="#334155" font-family="Helvetica" font-size="14" lengthAdjust="spacing" textLength="307.3916" x="790" y="1543.7803">shared/diagrams/shared-resolution-sequence.svg</text><text fill="#334155" font-family="Helvetica" font-size="14" lengthAdjust="spacing" textLength="143.1992" x="790" y="1557.7803">shared delete diagram:</text><text fill="#334155" font-family="Helvetica" font-size="14" lengthAdjust="spacing" textLength="284.833" x="790" y="1571.7803">shared/diagrams/shared-delete-sequence.svg</text><text fill="#334155" font-family="Helvetica" font-size="14" lengthAdjust="spacing" textLength="280.9297" x="790" y="1585.7803">Start from the shared resolution sequence for</text><text fill="#334155" font-family="Helvetica" font-size="14" lengthAdjust="spacing" textLength="260.7295" x="790" y="1599.7803">OCID binding, datasource pagination, and</text><text fill="#334155" font-family="Helvetica" font-size="14" lengthAdjust="spacing" textLength="163.4268" x="790" y="1613.7803">create-or-update dispatch.</text><text fill="#334155" font-family="Helvetica" font-size="14" lengthAdjust="spacing" textLength="301.1982" x="790" y="1627.7803">Layer the shared delete sequence when finalizer</text><text fill="#334155" font-family="Helvetica" font-size="14" lengthAdjust="spacing" textLength="269.2471" x="790" y="1641.7803">retention, delete confirmation, work-request</text><text fill="#334155" font-family="Helvetica" font-size="14" lengthAdjust="spacing" textLength="199.2334" x="790" y="1655.7803">polling, or Secret cleanup apply.</text><text fill="#334155" font-family="Helvetica" font-size="14" lengthAdjust="spacing" textLength="281.709" x="790" y="1669.7803">archetype batch: Generated service-manager</text><text fill="#334155" font-family="Helvetica" font-size="14" lengthAdjust="spacing" textLength="266.1504" x="790" y="1683.7803">controllers follow the shared resolution and</text><text fill="#334155" font-family="Helvetica" font-size="14" lengthAdjust="spacing" textLength="259.9297" x="790" y="1697.7803">delete sequences with imported waits and</text><text fill="#334155" font-family="Helvetica" font-size="14" lengthAdjust="spacing" textLength="134.6064" x="790" y="1711.7803">controller-local policy.</text><text fill="#334155" font-family="Helvetica" font-size="14" lengthAdjust="spacing" textLength="88.6826" x="790" y="1725.7803">service: mysql</text><text fill="#334155" font-family="Helvetica" font-size="14" lengthAdjust="spacing" textLength="129.9307" x="790" y="1739.7803">slug: mysqldbsystem</text><text fill="#334155" font-family="Helvetica" font-size="14" lengthAdjust="spacing" textLength="136.9307" x="790" y="1753.7803">kind: MySqlDbSystem</text><text fill="#334155" font-family="Helvetica" font-size="14" lengthAdjust="spacing" textLength="241.2402" x="790" y="1767.7803">archetype: generated-service-manager</text><text fill="#334155" font-family="Helvetica" font-size="14" lengthAdjust="spacing" textLength="185.9922" x="790" y="1781.7803">status/finalizer: manual / none</text><text fill="#334155" font-family="Helvetica" font-size="14" lengthAdjust="spacing" textLength="195.3643" x="790" y="1795.7803">requeue: provisioning, updating</text><text fill="#334155" font-family="Helvetica" font-size="14" lengthAdjust="spacing" textLength="298.7441" x="790" y="1809.7803">provider states: create CREATING, UPDATING;</text><text fill="#334155" font-family="Helvetica" font-size="14" lengthAdjust="spacing" textLength="238.875" x="790" y="1823.7803">update UPDATING; delete DELETING</text><text fill="#334155" font-family="Helvetica" font-size="14" lengthAdjust="spacing" textLength="187.5439" x="790" y="1837.7803">supported drift: access_mode,</text><text fill="#334155" font-family="Helvetica" font-size="14" lengthAdjust="spacing" textLength="385.2529" x="790" y="1851.7803">backup_policy.copy_policies.backup_copy_retention_in_days,</text><text fill="#334155" font-family="Helvetica" font-size="14" lengthAdjust="spacing" textLength="280.1777" x="790" y="1865.7803">backup_policy.copy_policies.copy_to_region,</text><text fill="#334155" font-family="Helvetica" font-size="14" lengthAdjust="spacing" textLength="245.54" x="790" y="1879.7803">backup_policy.defined_tags (+50 more)</text><text fill="#334155" font-family="Helvetica" font-size="14" lengthAdjust="spacing" textLength="230.3301" x="790" y="1893.7803">reject before mutate: force-new fields</text><text fill="#334155" font-family="Helvetica" font-size="14" lengthAdjust="spacing" textLength="225.6748" x="790" y="1907.7803">admin_password, admin_username,</text><text fill="#334155" font-family="Helvetica" font-size="14" lengthAdjust="spacing" textLength="299.1953" x="790" y="1921.7803">availability_domain, compartment_id (+12 more)</text><text fill="#334155" font-family="Helvetica" font-size="14" lengthAdjust="spacing" textLength="296.4404" x="790" y="1935.7803">list lookup: oci_mysql_mysql_db_systems filters</text><text fill="#334155" font-family="Helvetica" font-size="14" lengthAdjust="spacing" textLength="210.8955" x="790" y="1949.7803">compartment_id, configuration_id,</text><text fill="#334155" font-family="Helvetica" font-size="14" lengthAdjust="spacing" textLength="306.2295" x="790" y="1963.7803">database_management, db_system_id (+4 more)</text><text fill="#334155" font-family="Helvetica" font-size="14" lengthAdjust="spacing" textLength="89.4961" x="790" y="1977.7803">conflicts: none</text><text fill="#334155" font-family="Helvetica" font-size="14" lengthAdjust="spacing" textLength="192.999" x="790" y="1991.7803">open gaps: bind-versus-create,</text><text fill="#334155" font-family="Helvetica" font-size="14" lengthAdjust="spacing" textLength="279.3711" x="790" y="2005.7803">delete-confirmation, endpoint-materialization,</text><text fill="#334155" font-family="Helvetica" font-size="14" lengthAdjust="spacing" textLength="229.9199" x="790" y="2019.7803">list-lookup, mutation-policy (+2 more)</text><text fill="#334155" font-family="Helvetica" font-size="14" lengthAdjust="spacing" textLength="287.1436" x="790" y="2033.7803">Create reads username and password secrets</text><text fill="#334155" font-family="Helvetica" font-size="14" lengthAdjust="spacing" textLength="213.999" x="790" y="2047.7803">before submitting the OCI request.</text><text fill="#334155" font-family="Helvetica" font-size="14" lengthAdjust="spacing" textLength="278.6123" x="790" y="2061.7803">Endpoint secret materialization only happens</text><text fill="#334155" font-family="Helvetica" font-size="14" lengthAdjust="spacing" textLength="234.9717" x="790" y="2075.7803">after the DB system reaches ACTIVE.</text><text fill="#334155" font-family="Helvetica" font-size="14" lengthAdjust="spacing" textLength="312.8672" x="790" y="2089.7803">Delete remains an unsupported legacy path, so no</text><text fill="#334155" font-family="Helvetica" font-size="14" lengthAdjust="spacing" textLength="258.3506" x="790" y="2103.7803">confirmed terminating phase exists today.</text><?plantuml-src pLTTRzis57tdho2sbnQJdAHDrjP31xH9jXLBsw5kznJ0e2NAvaAHAadPyuRzznr-I9OSPyasO1WAD1PvUNa_pZttqju8rJ33QcfNhDGRePQqOj9oOlkT1IjkbaQtgZpNKXlwPLNWNpcGA7d5Mkc-qygzOpMdFt2vvauKxB3CJFp6wSdfO9CPepT9-t5rykp9yAJIZh--PKDLFIk_tfVIfkGcIInEpvuUlzYJyDUd_QTFJq_EpWRxGNsXZUA6ddnDd72Iqnd_t79LS9hJUci_owEtszbdUR6ORQtZDLc9ajDAQxVGlmvKsUxKxuHILZXjHgOb5xkjVT_u4_wyEiOsb26Aec7A7Ju_57Y8be7xlGufAdubr3XuBqxPqyLpx7gLpMYhM9Hd_AJVkfMOvnMh2l872RxH7zi5HqGTjsHW1ps78KPBoSre-JMp_0Clj2h4_jONxsVlVvnninO5VyiKMtBp1MMMZfT6HzwVlnchs1c3OuNXBcdmFsUmbXEF4QhNGC3Ob6pl6bIBuIKrt6hPEg7LD2qTbO8j0G5x5B_pdKZUeM9YryjEGyabxBdpTDmUd-Ig35Wc0tVoRmSXdLAk8DzoEW8hh4tka9siFpbsTKhxtu-ClzUwnsGiuW-D0pBTAOTBLdZNnfKIq4AljBx17mON5aALX4b7dG6680-qy5yRYMo5r56Kba8HRYcJXhDoYrrXdINZcxqja9xIxxdhB-DWi5vlhqTOMWjhmN5twRZ21PqI-wWIqd5ZfzUgqBK7KWr5Sr5c5AvMOjaQvlFgLwvLoHnR84hpEkZqeXaj5tCRb47cMZtwwfJMGDdZny5lmrlB5WYOTzR3f3LW31Y9v89JK59tcNcEU3ZUUokrRcWHrcW3T7WIF_zm-UhZctVVP_JJJnVXruFYXZj3x0xRzWyISS290uXh46QeZFMqHiv6-HUAMiTSQuCw7xfO5ZJ1avS9NHTXEHQn4SkLexhQ9uZ-QCs4ilZRw9orRgKzP5jbswRHngi4Z1i1oQXqw56ilZvMtbPlNyWTcCHiVUGUudQm7sMwMOa-rD4ieQxLxHHczEBowZ8aCzminPgdgxqgL9sbbU2opDa6z05G6b4vojTCjW6gNPp2yWfLA7qnx4XlR7Fc2NJM1OIsJUbligsfMC6dQ5u5jtPUwv9dn0y9RJDlDEftEobqius_1RUJj1SM4H-VLLyrQbwohVthe-7BQHnRuio-B6OADAvoxjZIqaTVdHt7yY8V-2-yS7J1AtpIklKHcgAaWE5SyKsCaIMih654mwpTeC5bD7wt5gIAAIOZRCs4P0iX0S9vgNrcVEaFgG2tdZmXyTR4RHrhx4bcv1Pfq4ESGOQSGNlAsE5EDsxW2aZJwqKud2_xc73Wi4IS2m_Z1y5m62uFmn0oZnSFSdzXNnPXonF3_JSbEdZLD79BFmNmzAr8AwpXkclLwOiv6O7gMlrpLFtrsJrOxGlVmXNC34a8J9lge6FQlyslT_EwQHLTSGasf2k0oQBn15P_wQgEWoUH-p-aps-kLJHdA19ZFH29d3SKYQJMYHomPp0KUO2micCOz5FLj41440YTV6F0azSgz8OyP1ROKW05Ofla0cj7dTHkLO57Xf3s8U1SI5tS07y15-6wGB5tXlA0YjWyNgB8MYOp84qnYIU8UQcqYZo-FzxiZLCTJyETnkYri70CgSyY57eAlQlbTADUdEt-tQHuhvP34-FCWOTePNHDtOhJMyFhxhs2aYI0uaMOpeABdgDI-s_O4g7p1pAV21B1cMkJfv8eXMsOArOJSiMsYEFWicHzVz5cnTKk4wGluAoJ36nfwdGT2FecJ-sUe4fbi4sR3bE5vCWk1ajFDXF2JB7YRjjmF5vXZoz2lEgOvoyRSvFNAJb5dsVqJlpLcpjYv3tUyyBIZN0hAkh4ZHicd8sXwRNcm2-JD34BITTFuskIMDakq-zo4McVu1LPJlUcvzwXALrshkJxhaIS7_LHXU80UNf40z8JZATtWJWiuw4NHmhVmU9CUNiG-OQaZFSBNThw0MNNCKAd-3-F2-Q_7HVIhT8Fl3BC35Eg2p4FA4Z_zqE0xUO9SkyRXDpx11cC4ztGW2m7R6YqCxfa3RvzwUUO1crhyuY0B04_7nSbcBFHGZa041OA3xgu4tpBeszPFqpaCGqmeWj1x6MXlLZQ1J9mV1Vbr3uiIScnxQ8MBemwlahZo1nOOK8kapbTQzgpAiuSAp04LqXcvH91NRocjdiVCrIPfQ_EFxxv-N92BiPF1QQ6xmCg-PB16n3UAgDM8umaXGURK5u7heIXpGevIMycwZHGFEcdkJy1?></g></svg>