<?plantuml 1.2026.2?><svg xmlns="http://www.w3.org/2000/svg" xmlns:xlink="http://www.w3.org/1999/xlink" contentStyleType="text/css" data-diagram-type="SEQUENCE" height="1918px" preserveAspectRatio="none" style="width:1187px;height:1918px;background:#FCFCFD;" version="1.1" viewBox="0 0 1187 1918" width="1187px" zoomAndPan="magnify"><title>Sequence - distributeddatabase/DistributedDatabase</title><defs/><g><rect fill="#FCFCFD" height="1918" style="stroke:none;stroke-width:1;" width="1187" x="0" y="0"/><text fill="#000000" font-family="Helvetica" font-size="14" font-weight="bold" lengthAdjust="spacing" textLength="351.6406" x="424.1584" y="25.7803">Sequence - distributeddatabase/DistributedDatabase</text><rect fill="none" height="290" rx="8" ry="8" style="stroke:#CBD5E1;stroke-width:1.5;" width="738.3779" x="425.8457" y="342"/><rect fill="none" height="146" rx="8" ry="8" style="stroke:#CBD5E1;stroke-width:1.5;" width="475.9575" x="678.2661" y="451"/><rect fill="none" height="44" rx="8" ry="8" style="stroke:#CBD5E1;stroke-width:1.5;" width="455.9575" x="688.2661" y="502"/><rect fill="none" height="696" rx="8" ry="8" style="stroke:#CBD5E1;stroke-width:1.5;" width="775.1118" x="405.8457" y="646"/><rect fill="none" height="274" rx="8" ry="8" style="stroke:#CBD5E1;stroke-width:1.5;" width="738.3779" x="415.8457" y="669"/><rect fill="none" height="58" rx="8" ry="8" style="stroke:#CBD5E1;stroke-width:1.5;" width="455.9575" x="688.2661" y="776"/><rect fill="none" height="88" rx="8" ry="8" style="stroke:#CBD5E1;stroke-width:1.5;" width="438.813" x="425.8457" y="848"/><rect fill="none" height="248" rx="8" ry="8" style="stroke:#CBD5E1;stroke-width:1.5;" width="755.1118" x="415.8457" y="1045"/><rect fill="none" height="44" rx="8" ry="8" style="stroke:#CBD5E1;stroke-width:1.5;" width="438.813" x="425.8457" y="1144"/><g class="participant-lifeline" data-entity-uid="part1" data-qualified-name="Kubernetes" id="part1-lifeline"><g><title>Kubernetes</title><rect fill="#000000" fill-opacity="0.00000" height="1797" width="8" x="39.8032" y="114"/><line style="stroke:#94A3B8;stroke-width:0.5;stroke-dasharray:5,5;" x1="43" x2="43" y1="114" y2="1911"/></g></g><g class="participant-lifeline" data-entity-uid="part2" data-qualified-name="Controller" id="part2-lifeline"><g><title>Controller</title><rect fill="#000000" fill-opacity="0.00000" height="1797" width="8" x="249.0435" y="114"/><line style="stroke:#94A3B8;stroke-width:0.5;stroke-dasharray:5,5;" x1="252.6987" x2="252.6987" y1="114" y2="1911"/></g></g><g class="participant-lifeline" data-entity-uid="part3" data-qualified-name="BaseReconciler" id="part3-lifeline"><g><title>BaseReconciler</title><rect fill="#000000" fill-opacity="0.00000" height="1797" width="8" x="487.8696" y="114"/><line style="stroke:#94A3B8;stroke-width:0.5;stroke-dasharray:5,5;" x1="491.8457" x2="491.8457" y1="114" y2="1911"/></g></g><g class="participant-lifeline" data-entity-uid="part4" data-qualified-name="ServiceManager" id="part4-lifeline"><g><title>OSOKServiceManager</title><rect fill="#000000" fill-opacity="0.00000" height="1797" width="8" x="772.4624" y="114"/><line style="stroke:#94A3B8;stroke-width:0.5;stroke-dasharray:5,5;" x1="776.2661" x2="776.2661" y1="114" y2="1911"/></g></g><g class="participant-lifeline" data-entity-uid="part5" data-qualified-name="OCI" id="part5-lifeline"><g><title>OCI</title><rect fill="#000000" fill-opacity="0.00000" height="1797" width="8" x="1110.7788" y="114"/><line style="stroke:#94A3B8;stroke-width:0.5;stroke-dasharray:5,5;" x1="1114.334" x2="1114.334" y1="114" y2="1911"/></g></g><g class="participant participant-head" data-entity-uid="part1" data-qualified-name="Kubernetes" id="part1-head"><text fill="#000000" font-family="Helvetica" font-size="14" lengthAdjust="spacing" textLength="71.6064" x="5" y="110.7803">Kubernetes</text><ellipse cx="43.8032" cy="48.5" fill="#E2E8F0" rx="8" ry="8" style="stroke:#0F172A;stroke-width:0.5;"/><path d="M43.8032,56.5 L43.8032,83.5 M30.8032,64.5 L56.8032,64.5 M43.8032,83.5 L30.8032,98.5 M43.8032,83.5 L56.8032,98.5" fill="none" style="stroke:#0F172A;stroke-width:0.5;"/></g><g class="participant participant-head" data-entity-uid="part2" data-qualified-name="Controller" id="part2-head"><rect fill="#E2E8F0" height="28" rx="8" ry="8" style="stroke:#0F172A;stroke-width:0.5;" width="74.6895" x="215.6987" y="85"/><text fill="#0F172A" font-family="Helvetica" font-size="14" lengthAdjust="spacing" textLength="60.6895" x="222.6987" y="102.7803">Controller</text></g><g class="participant participant-head" data-entity-uid="part3" data-qualified-name="BaseReconciler" id="part3-head"><rect fill="#E2E8F0" height="28" rx="8" ry="8" style="stroke:#0F172A;stroke-width:0.5;" width="112.0479" x="435.8457" y="85"/><text fill="#0F172A" font-family="Helvetica" font-size="14" lengthAdjust="spacing" textLength="98.0479" x="442.8457" y="102.7803">BaseReconciler</text></g><g class="participant participant-head" data-entity-uid="part4" data-qualified-name="ServiceManager" id="part4-head"><rect fill="#E2E8F0" height="28" rx="8" ry="8" style="stroke:#0F172A;stroke-width:0.5;" width="156.3926" x="698.2661" y="85"/><text fill="#0F172A" font-family="Helvetica" font-size="14" lengthAdjust="spacing" textLength="142.3926" x="705.2661" y="102.7803">OSOKServiceManager</text></g><g class="participant participant-head" data-entity-uid="part5" data-qualified-name="OCI" id="part5-head"><rect fill="#E2E8F0" height="28" rx="8" ry="8" style="stroke:#0F172A;stroke-width:0.5;" width="38.8896" x="1095.334" y="85"/><text fill="#0F172A" font-family="Helvetica" font-size="14" lengthAdjust="spacing" textLength="24.8896" x="1102.334" y="102.7803">OCI</text></g><path d="M427,137 L427,187 A8,8 0 0 0 435,195 L832,195 A8,8 0 0 0 840,187 L840,139 L830,129 L435,129 A8,8 0 0 0 427,137" fill="#FFF7D6" style="stroke:#B45309;stroke-width:0.5;"/><path d="M830,129 L830,135 A4,4 0 0 0 834,139 L840,139 L830,129" fill="#FFF7D6" style="stroke:#B45309;stroke-width:0.5;"/><text fill="#334155" font-family="Helvetica" font-size="14" lengthAdjust="spacing" textLength="111.2891" x="475.7107" y="144.7803">shared resolution:</text><text fill="#334155" font-family="Helvetica" font-size="14" lengthAdjust="spacing" textLength="307.3916" x="475.7107" y="158.7803">shared/diagrams/shared-resolution-sequence.svg</text><text fill="#334155" font-family="Helvetica" font-size="14" lengthAdjust="spacing" textLength="88.7305" x="475.7107" y="172.7803">shared delete:</text><text fill="#334155" font-family="Helvetica" font-size="14" lengthAdjust="spacing" textLength="284.833" x="475.7107" y="186.7803">shared/diagrams/shared-delete-sequence.svg</text><g class="message" data-entity-1="part1" data-entity-2="part2" id="msg1"><polygon fill="#0F172A" points="241.0435,230,251.0435,234,241.0435,238,245.0435,234" style="stroke:#0F172A;stroke-width:1;"/><line style="stroke:#0F172A;stroke-width:1;" x1="43.8032" x2="247.0435" y1="234" y2="234"/><text fill="#000000" font-family="Helvetica" font-size="14" lengthAdjust="spacing" textLength="185.2402" x="50.8032" y="214.7803">enqueue DistributedDatabase</text><text fill="#000000" font-family="Helvetica" font-size="14" lengthAdjust="spacing" textLength="56.0273" x="50.8032" y="228.7803">reconcile</text></g><g class="message" data-entity-1="part2" data-entity-2="part3" id="msg2"><polygon fill="#0F172A" points="479.8696,258,489.8696,262,479.8696,266,483.8696,262" style="stroke:#0F172A;stroke-width:1;"/><line style="stroke:#0F172A;stroke-width:1;" x1="253.0435" x2="485.8696" y1="262" y2="262"/><text fill="#000000" font-family="Helvetica" font-size="14" lengthAdjust="spacing" textLength="117.4961" x="260.0435" y="256.7803">Reconcile(request)</text></g><g class="message" data-entity-1="part3" data-entity-2="part4" id="msg3"><polygon fill="#0F172A" points="764.4624,300,774.4624,304,764.4624,308,768.4624,304" style="stroke:#0F172A;stroke-width:1;"/><line style="stroke:#0F172A;stroke-width:1;" x1="491.8696" x2="770.4624" y1="304" y2="304"/><text fill="#000000" font-family="Helvetica" font-size="14" lengthAdjust="spacing" textLength="105.834" x="498.8696" y="284.7803">reconcile desired</text><text fill="#000000" font-family="Helvetica" font-size="14" lengthAdjust="spacing" textLength="126.8477" x="498.8696" y="298.7803">DistributedDatabase</text></g><path d="M433.8457,342 L487.1836,342 L487.1836,348 L477.1836,358 L425.8457,358 L425.8457,350 A8,8 0 0 1 433.8457,342" fill="#F8FAFC" style="stroke:#CBD5E1;stroke-width:1.5;"/><rect fill="none" height="290" rx="8" ry="8" style="stroke:#CBD5E1;stroke-width:1.5;" width="738.3779" x="425.8457" y="342"/><text fill="#000000" font-family="Helvetica" font-size="14" font-weight="bold" lengthAdjust="spacing" textLength="16.3379" x="440.8457" y="353.7803">alt</text><text fill="#000000" font-family="Helvetica" font-size="14" font-weight="bold" lengthAdjust="spacing" textLength="308.1094" x="502.1836" y="354.7803">[tracked or explicit OCI identity already exists]</text><g class="message" data-entity-1="part4" data-entity-2="part5" id="msg4"><polygon fill="#0F172A" points="1102.7788,374,1112.7788,378,1102.7788,382,1106.7788,378" style="stroke:#0F172A;stroke-width:1;"/><line style="stroke:#0F172A;stroke-width:1;" x1="776.4624" x2="1108.7788" y1="378" y2="378"/><text fill="#000000" font-family="Helvetica" font-size="14" lengthAdjust="spacing" textLength="149.4131" x="783.4624" y="372.7803">GetDistributedDatabase</text></g><line style="stroke:#CBD5E1;stroke-width:1;stroke-dasharray:2,2;" x1="425.8457" x2="1164.2236" y1="387" y2="387"/><text fill="#000000" font-family="Helvetica" font-size="14" font-weight="bold" lengthAdjust="spacing" textLength="185.1582" x="430.8457" y="397.7803">[tracked identity is missing]</text><g class="message" data-entity-1="part4" data-entity-2="part5" id="msg5"><polygon fill="#0F172A" points="1102.7788,432,1112.7788,436,1102.7788,440,1106.7788,436" style="stroke:#0F172A;stroke-width:1;"/><line style="stroke:#0F172A;stroke-width:1;" x1="776.4624" x2="1108.7788" y1="436" y2="436"/><text fill="#000000" font-family="Helvetica" font-size="14" lengthAdjust="spacing" textLength="190.6338" x="783.4624" y="416.7803">ListDistributedDatabase(filters:</text><text fill="#000000" font-family="Helvetica" font-size="14" lengthAdjust="spacing" textLength="143.1719" x="783.4624" y="430.7803">compartment_id, state)</text></g><path d="M686.2661,451 L739.604,451 L739.604,457 L729.604,467 L678.2661,467 L678.2661,459 A8,8 0 0 1 686.2661,451" fill="#F8FAFC" style="stroke:#CBD5E1;stroke-width:1.5;"/><rect fill="none" height="146" rx="8" ry="8" style="stroke:#CBD5E1;stroke-width:1.5;" width="475.9575" x="678.2661" y="451"/><text fill="#000000" font-family="Helvetica" font-size="14" font-weight="bold" lengthAdjust="spacing" textLength="16.3379" x="693.2661" y="462.7803">alt</text><text fill="#000000" font-family="Helvetica" font-size="14" font-weight="bold" lengthAdjust="spacing" textLength="242.7031" x="754.604" y="463.7803">[reusable OCI resource is not found]</text><g class="message" data-entity-1="part4" data-entity-2="part5" id="msg6"><polygon fill="#0F172A" points="1102.7788,483,1112.7788,487,1102.7788,491,1106.7788,487" style="stroke:#0F172A;stroke-width:1;"/><line style="stroke:#0F172A;stroke-width:1;" x1="776.4624" x2="1108.7788" y1="487" y2="487"/><text fill="#000000" font-family="Helvetica" font-size="14" lengthAdjust="spacing" textLength="168.8682" x="783.4624" y="481.7803">CreateDistributedDatabase</text></g><path d="M696.2661,502 L762.811,502 L762.811,508 L752.811,518 L688.2661,518 L688.2661,510 A8,8 0 0 1 696.2661,502" fill="#F8FAFC" style="stroke:#CBD5E1;stroke-width:1.5;"/><rect fill="none" height="44" rx="8" ry="8" style="stroke:#CBD5E1;stroke-width:1.5;" width="455.9575" x="688.2661" y="502"/><text fill="#000000" font-family="Helvetica" font-size="14" font-weight="bold" lengthAdjust="spacing" textLength="29.5449" x="703.2661" y="513.7803">loop</text><text fill="#000000" font-family="Helvetica" font-size="14" font-weight="bold" lengthAdjust="spacing" textLength="215.4756" x="777.811" y="514.7803">[create pending PROVISIONING]</text><g class="message" data-entity-1="part4" data-entity-2="part5" id="msg7"><polygon fill="#0F172A" points="1102.7788,534,1112.7788,538,1102.7788,542,1106.7788,538" style="stroke:#0F172A;stroke-width:1;"/><line style="stroke:#0F172A;stroke-width:1;" x1="776.4624" x2="1108.7788" y1="538" y2="538"/><text fill="#000000" font-family="Helvetica" font-size="14" lengthAdjust="spacing" textLength="149.4131" x="783.4624" y="532.7803">GetDistributedDatabase</text></g><line style="stroke:#CBD5E1;stroke-width:1;stroke-dasharray:2,2;" x1="678.2661" x2="1154.2236" y1="554" y2="554"/><text fill="#000000" font-family="Helvetica" font-size="14" font-weight="bold" lengthAdjust="spacing" textLength="255.2334" x="683.2661" y="564.7803">[reusable OCI resource already exists]</text><g class="message" data-entity-1="part4" data-entity-2="part5" id="msg8"><polygon fill="#0F172A" points="1102.7788,585,1112.7788,589,1102.7788,593,1106.7788,589" style="stroke:#0F172A;stroke-width:1;"/><line style="stroke:#0F172A;stroke-width:1;" x1="776.4624" x2="1108.7788" y1="589" y2="589"/><text fill="#000000" font-family="Helvetica" font-size="14" lengthAdjust="spacing" textLength="149.4131" x="783.4624" y="583.7803">GetDistributedDatabase</text></g><g class="message" data-entity-1="part4" data-entity-2="part3" id="msg9"><polygon fill="#0F172A" points="502.8696,620,492.8696,624,502.8696,628,498.8696,624" style="stroke:#0F172A;stroke-width:1;"/><line style="stroke:#0F172A;stroke-width:1;stroke-dasharray:2,2;" x1="496.8696" x2="775.4624" y1="624" y2="624"/><text fill="#000000" font-family="Helvetica" font-size="14" lengthAdjust="spacing" textLength="231.0957" x="508.8696" y="618.7803">persist resolved OCI identity in status</text></g><path d="M413.8457,646 L467.1836,646 L467.1836,652 L457.1836,662 L405.8457,662 L405.8457,654 A8,8 0 0 1 413.8457,646" fill="#F8FAFC" style="stroke:#CBD5E1;stroke-width:1.5;"/><rect fill="none" height="696" rx="8" ry="8" style="stroke:#CBD5E1;stroke-width:1.5;" width="775.1118" x="405.8457" y="646"/><text fill="#000000" font-family="Helvetica" font-size="14" font-weight="bold" lengthAdjust="spacing" textLength="16.3379" x="420.8457" y="657.7803">alt</text><text fill="#000000" font-family="Helvetica" font-size="14" font-weight="bold" lengthAdjust="spacing" textLength="120.5859" x="482.1836" y="658.7803">[delete requested]</text><path d="M423.8457,669 L502.8662,669 L502.8662,675 L492.8662,685 L415.8457,685 L415.8457,677 A8,8 0 0 1 423.8457,669" fill="#F8FAFC" style="stroke:#CBD5E1;stroke-width:1.5;"/><rect fill="none" height="274" rx="8" ry="8" style="stroke:#CBD5E1;stroke-width:1.5;" width="738.3779" x="415.8457" y="669"/><text fill="#000000" font-family="Helvetica" font-size="14" font-weight="bold" lengthAdjust="spacing" textLength="42.0205" x="430.8457" y="680.7803">Delete</text><g class="message" data-entity-1="part4" data-entity-2="part5" id="msg10"><polygon fill="#0F172A" points="1102.7788,701,1112.7788,705,1102.7788,709,1106.7788,705" style="stroke:#0F172A;stroke-width:1;"/><line style="stroke:#0F172A;stroke-width:1;" x1="776.4624" x2="1108.7788" y1="705" y2="705"/><text fill="#000000" font-family="Helvetica" font-size="14" lengthAdjust="spacing" textLength="167.3164" x="783.4624" y="699.7803">DeleteDistributedDatabase</text></g><g class="message" data-entity-1="part4" data-entity-2="part5" id="msg11"><polygon fill="#0F172A" points="1102.7788,757,1112.7788,761,1102.7788,765,1106.7788,761" style="stroke:#0F172A;stroke-width:1;"/><line style="stroke:#0F172A;stroke-width:1;" x1="776.4624" x2="1108.7788" y1="761" y2="761"/><text fill="#000000" font-family="Helvetica" font-size="14" lengthAdjust="spacing" textLength="109.7168" x="783.4624" y="727.7803">confirm delete via</text><text fill="#000000" font-family="Helvetica" font-size="14" lengthAdjust="spacing" textLength="165.751" x="783.4624" y="741.7803">GetDistributedDatabase or</text><text fill="#000000" font-family="Helvetica" font-size="14" lengthAdjust="spacing" textLength="148.6338" x="783.4624" y="755.7803">ListDistributedDatabase</text></g><path d="M696.2661,776 L762.811,776 L762.811,782 L752.811,792 L688.2661,792 L688.2661,784 A8,8 0 0 1 696.2661,776" fill="#F8FAFC" style="stroke:#CBD5E1;stroke-width:1.5;"/><rect fill="none" height="58" rx="8" ry="8" style="stroke:#CBD5E1;stroke-width:1.5;" width="455.9575" x="688.2661" y="776"/><text fill="#000000" font-family="Helvetica" font-size="14" font-weight="bold" lengthAdjust="spacing" textLength="29.5449" x="703.2661" y="787.7803">loop</text><text fill="#000000" font-family="Helvetica" font-size="14" font-weight="bold" lengthAdjust="spacing" textLength="182.7793" x="777.811" y="788.7803">[delete pending DELETING]</text><g class="message" data-entity-1="part4" data-entity-2="part5" id="msg12"><polygon fill="#0F172A" points="1102.7788,822,1112.7788,826,1102.7788,830,1106.7788,826" style="stroke:#0F172A;stroke-width:1;"/><line style="stroke:#0F172A;stroke-width:1;" x1="776.4624" x2="1108.7788" y1="826" y2="826"/><text fill="#000000" font-family="Helvetica" font-size="14" lengthAdjust="spacing" textLength="165.751" x="783.4624" y="806.7803">GetDistributedDatabase or</text><text fill="#000000" font-family="Helvetica" font-size="14" lengthAdjust="spacing" textLength="148.6338" x="783.4624" y="820.7803">ListDistributedDatabase</text></g><path d="M433.8457,848 L487.1836,848 L487.1836,854 L477.1836,864 L425.8457,864 L425.8457,856 A8,8 0 0 1 433.8457,848" fill="#F8FAFC" style="stroke:#CBD5E1;stroke-width:1.5;"/><rect fill="none" height="88" rx="8" ry="8" style="stroke:#CBD5E1;stroke-width:1.5;" width="438.813" x="425.8457" y="848"/><text fill="#000000" font-family="Helvetica" font-size="14" font-weight="bold" lengthAdjust="spacing" textLength="16.3379" x="440.8457" y="859.7803">alt</text><text fill="#000000" font-family="Helvetica" font-size="14" font-weight="bold" lengthAdjust="spacing" textLength="261.4268" x="502.1836" y="860.7803">[cleanup or finalizer release is blocked]</text><g class="message" data-entity-1="part4" data-entity-2="part3" id="msg13"><polygon fill="#0F172A" points="502.8696,880,492.8696,884,502.8696,888,498.8696,884" style="stroke:#0F172A;stroke-width:1;"/><line style="stroke:#0F172A;stroke-width:1;stroke-dasharray:2,2;" x1="496.8696" x2="775.4624" y1="884" y2="884"/><text fill="#000000" font-family="Helvetica" font-size="14" lengthAdjust="spacing" textLength="170.4336" x="508.8696" y="878.7803">retain delete state and retry</text></g><line style="stroke:#CBD5E1;stroke-width:1;stroke-dasharray:2,2;" x1="425.8457" x2="864.6587" y1="893" y2="893"/><text fill="#000000" font-family="Helvetica" font-size="14" font-weight="bold" lengthAdjust="spacing" textLength="194.4824" x="430.8457" y="903.7803">[delete completion observed]</text><g class="message" data-entity-1="part4" data-entity-2="part3" id="msg14"><polygon fill="#0F172A" points="502.8696,924,492.8696,928,502.8696,932,498.8696,928" style="stroke:#0F172A;stroke-width:1;"/><line style="stroke:#0F172A;stroke-width:1;stroke-dasharray:2,2;" x1="496.8696" x2="775.4624" y1="928" y2="928"/><text fill="#000000" font-family="Helvetica" font-size="14" lengthAdjust="spacing" textLength="243.5781" x="508.8696" y="922.7803">release finalizer after delete completion</text></g><line style="stroke:#CBD5E1;stroke-width:1;stroke-dasharray:2,2;" x1="405.8457" x2="1180.9575" y1="951" y2="951"/><text fill="#000000" font-family="Helvetica" font-size="14" font-weight="bold" lengthAdjust="spacing" textLength="149.3857" x="410.8457" y="961.7803">[OCI state is retryable]</text><g class="message" data-entity-1="part4" data-entity-2="part3" id="msg15"><polygon fill="#0F172A" points="502.8696,996,492.8696,1000,502.8696,1004,498.8696,1000" style="stroke:#0F172A;stroke-width:1;"/><line style="stroke:#0F172A;stroke-width:1;stroke-dasharray:2,2;" x1="496.8696" x2="775.4624" y1="1000" y2="1000"/><text fill="#000000" font-family="Helvetica" font-size="14" lengthAdjust="spacing" textLength="184.4199" x="508.8696" y="980.7803">requeue while OCI remains in</text><text fill="#000000" font-family="Helvetica" font-size="14" lengthAdjust="spacing" textLength="260.5928" x="508.8696" y="994.7803">PROVISIONING, UPDATING, DELETING</text></g><line style="stroke:#CBD5E1;stroke-width:1;stroke-dasharray:2,2;" x1="405.8457" x2="1180.9575" y1="1009" y2="1009"/><text fill="#000000" font-family="Helvetica" font-size="14" font-weight="bold" lengthAdjust="spacing" textLength="200.751" x="410.8457" y="1019.7803">[live state requires field-aware</text><text fill="#000000" font-family="Helvetica" font-size="14" font-weight="bold" lengthAdjust="spacing" textLength="105.0068" x="410.8457" y="1033.7803">drift evaluation]</text><path d="M423.8457,1045 L551.832,1045 L551.832,1051 L541.832,1061 L415.8457,1061 L415.8457,1053 A8,8 0 0 1 423.8457,1045" fill="#F8FAFC" style="stroke:#CBD5E1;stroke-width:1.5;"/><rect fill="none" height="248" rx="8" ry="8" style="stroke:#CBD5E1;stroke-width:1.5;" width="755.1118" x="415.8457" y="1045"/><text fill="#000000" font-family="Helvetica" font-size="14" font-weight="bold" lengthAdjust="spacing" textLength="90.9863" x="430.8457" y="1056.7803">Drift handling</text><path d="M730,1074 L730,1124 A8,8 0 0 0 738,1132 L1152,1132 A8,8 0 0 0 1160,1124 L1160,1076 L1150,1066 L738,1066 A8,8 0 0 0 730,1074" fill="#FFF7D6" style="stroke:#B45309;stroke-width:0.5;"/><path d="M1150,1066 L1150,1072 A4,4 0 0 0 1154,1076 L1160,1076 L1150,1066" fill="#FFF7D6" style="stroke:#B45309;stroke-width:0.5;"/><text fill="#334155" font-family="Helvetica" font-size="14" lengthAdjust="spacing" textLength="200.04" x="823.0896" y="1081.7803">Supported update surface: none</text><text fill="#334155" font-family="Helvetica" font-size="14" lengthAdjust="spacing" textLength="235.7783" x="823.0896" y="1095.7803">Reject before mutate: force-new fields</text><text fill="#334155" font-family="Helvetica" font-size="14" lengthAdjust="spacing" textLength="100.3789" x="823.0896" y="1109.7803">compartment_id</text><text fill="#334155" font-family="Helvetica" font-size="14" lengthAdjust="spacing" textLength="229.5576" x="823.0896" y="1123.7803">Lookup filters: compartment_id, state</text><path d="M433.8457,1144 L492.6113,1144 L492.6113,1150 L482.6113,1160 L425.8457,1160 L425.8457,1152 A8,8 0 0 1 433.8457,1144" fill="#F8FAFC" style="stroke:#CBD5E1;stroke-width:1.5;"/><rect fill="none" height="44" rx="8" ry="8" style="stroke:#CBD5E1;stroke-width:1.5;" width="438.813" x="425.8457" y="1144"/><text fill="#000000" font-family="Helvetica" font-size="14" font-weight="bold" lengthAdjust="spacing" textLength="21.7656" x="440.8457" y="1155.7803">opt</text><text fill="#000000" font-family="Helvetica" font-size="14" font-weight="bold" lengthAdjust="spacing" textLength="276.1309" x="507.6113" y="1156.7803">[force-new or conflicting drift is detected]</text><g class="message" data-entity-1="part4" data-entity-2="part3" id="msg16"><polygon fill="#0F172A" points="502.8696,1176,492.8696,1180,502.8696,1184,498.8696,1180" style="stroke:#0F172A;stroke-width:1;"/><line style="stroke:#0F172A;stroke-width:1;stroke-dasharray:2,2;" x1="496.8696" x2="775.4624" y1="1180" y2="1180"/><text fill="#000000" font-family="Helvetica" font-size="14" lengthAdjust="spacing" textLength="164.1855" x="508.8696" y="1174.7803">reject before OCI mutation</text></g><g class="message" data-entity-1="part4" data-entity-2="part5" id="msg17"><polygon fill="#0F172A" points="1102.7788,1281,1112.7788,1285,1102.7788,1289,1106.7788,1285" style="stroke:#0F172A;stroke-width:1;"/><line style="stroke:#0F172A;stroke-width:1;" x1="776.4624" x2="1108.7788" y1="1285" y2="1285"/><text fill="#000000" font-family="Helvetica" font-size="14" lengthAdjust="spacing" textLength="104.2891" x="783.4624" y="1209.7803">run helper hooks</text><text fill="#000000" font-family="Helvetica" font-size="14" lengthAdjust="spacing" textLength="219.0508" x="783.4624" y="1223.7803">create=tfresource.CreateResource,</text><text fill="#000000" font-family="Helvetica" font-size="14" lengthAdjust="spacing" textLength="314.3164" x="783.4624" y="1237.7803">tfresource.WaitForWorkRequestWithErrorHandling</text><text fill="#000000" font-family="Helvetica" font-size="14" lengthAdjust="spacing" textLength="215.5439" x="783.4624" y="1251.7803">entity=template action=CREATED;</text><text fill="#000000" font-family="Helvetica" font-size="14" lengthAdjust="spacing" textLength="226.085" x="783.4624" y="1265.7803">update=tfresource.UpdateResource;</text><text fill="#000000" font-family="Helvetica" font-size="14" lengthAdjust="spacing" textLength="212.8438" x="783.4624" y="1279.7803">delete=tfresource.DeleteResource</text></g><g class="message" data-entity-1="part4" data-entity-2="part3" id="msg18"><polygon fill="#0F172A" points="502.8696,1330,492.8696,1334,502.8696,1338,498.8696,1334" style="stroke:#0F172A;stroke-width:1;"/><line style="stroke:#0F172A;stroke-width:1;stroke-dasharray:2,2;" x1="496.8696" x2="775.4624" y1="1334" y2="1334"/><text fill="#000000" font-family="Helvetica" font-size="14" lengthAdjust="spacing" textLength="100.7822" x="508.8696" y="1314.7803">status=required,</text><text fill="#000000" font-family="Helvetica" font-size="14" lengthAdjust="spacing" textLength="230.7197" x="508.8696" y="1328.7803">finalizer=retain-until-confirmed-delete</text></g><g class="message" data-entity-1="part3" data-entity-2="part2" id="msg19"><polygon fill="#0F172A" points="264.0435,1379,254.0435,1383,264.0435,1387,260.0435,1383" style="stroke:#0F172A;stroke-width:1;"/><line style="stroke:#0F172A;stroke-width:1;stroke-dasharray:2,2;" x1="258.0435" x2="490.8696" y1="1383" y2="1383"/><text fill="#000000" font-family="Helvetica" font-size="14" lengthAdjust="spacing" textLength="214.8262" x="270.0435" y="1363.7803">requeue on provisioning, updating,</text><text fill="#000000" font-family="Helvetica" font-size="14" lengthAdjust="spacing" textLength="69.2549" x="270.0435" y="1377.7803">terminating</text></g><path d="M781,1404 L781,1888 A8,8 0 0 0 789,1896 L1101,1896 A8,8 0 0 0 1109,1888 L1109,1406 L1099,1396 L789,1396 A8,8 0 0 0 781,1404" fill="#FFF7D6" style="stroke:#B45309;stroke-width:0.5;"/><path d="M1099,1396 L1099,1402 A4,4 0 0 0 1103,1406 L1109,1406 L1099,1396" fill="#FFF7D6" style="stroke:#B45309;stroke-width:0.5;"/><text fill="#334155" font-family="Helvetica" font-size="14" lengthAdjust="spacing" textLength="101.165" x="787" y="1411.7803">shared diagram:</text><text fill="#334155" font-family="Helvetica" font-size="14" lengthAdjust="spacing" textLength="307.3916" x="787" y="1425.7803">shared/diagrams/shared-resolution-sequence.svg</text><text fill="#334155" font-family="Helvetica" font-size="14" lengthAdjust="spacing" textLength="143.1992" x="787" y="1439.7803">shared delete diagram:</text><text fill="#334155" font-family="Helvetica" font-size="14" lengthAdjust="spacing" textLength="284.833" x="787" y="1453.7803">shared/diagrams/shared-delete-sequence.svg</text><text fill="#334155" font-family="Helvetica" font-size="14" lengthAdjust="spacing" textLength="280.9297" x="787" y="1467.7803">Start from the shared resolution sequence for</text><text fill="#334155" font-family="Helvetica" font-size="14" lengthAdjust="spacing" textLength="260.7295" x="787" y="1481.7803">OCID binding, datasource pagination, and</text><text fill="#334155" font-family="Helvetica" font-size="14" lengthAdjust="spacing" textLength="163.4268" x="787" y="1495.7803">create-or-update dispatch.</text><text fill="#334155" font-family="Helvetica" font-size="14" lengthAdjust="spacing" textLength="301.1982" x="787" y="1509.7803">Layer the shared delete sequence when finalizer</text><text fill="#334155" font-family="Helvetica" font-size="14" lengthAdjust="spacing" textLength="269.2471" x="787" y="1523.7803">retention, delete confirmation, work-request</text><text fill="#334155" font-family="Helvetica" font-size="14" lengthAdjust="spacing" textLength="199.2334" x="787" y="1537.7803">polling, or Secret cleanup apply.</text><text fill="#334155" font-family="Helvetica" font-size="14" lengthAdjust="spacing" textLength="281.709" x="787" y="1551.7803">archetype batch: Generated service-manager</text><text fill="#334155" font-family="Helvetica" font-size="14" lengthAdjust="spacing" textLength="266.1504" x="787" y="1565.7803">controllers follow the shared resolution and</text><text fill="#334155" font-family="Helvetica" font-size="14" lengthAdjust="spacing" textLength="259.9297" x="787" y="1579.7803">delete sequences with imported waits and</text><text fill="#334155" font-family="Helvetica" font-size="14" lengthAdjust="spacing" textLength="134.6064" x="787" y="1593.7803">controller-local policy.</text><text fill="#334155" font-family="Helvetica" font-size="14" lengthAdjust="spacing" textLength="174.3232" x="787" y="1607.7803">service: distributeddatabase</text><text fill="#334155" font-family="Helvetica" font-size="14" lengthAdjust="spacing" textLength="155.6611" x="787" y="1621.7803">slug: distributeddatabase</text><text fill="#334155" font-family="Helvetica" font-size="14" lengthAdjust="spacing" textLength="160.3096" x="787" y="1635.7803">kind: DistributedDatabase</text><text fill="#334155" font-family="Helvetica" font-size="14" lengthAdjust="spacing" textLength="241.2402" x="787" y="1649.7803">archetype: generated-service-manager</text><text fill="#334155" font-family="Helvetica" font-size="14" lengthAdjust="spacing" textLength="156.4063" x="787" y="1663.7803">status/finalizer: required /</text><text fill="#334155" font-family="Helvetica" font-size="14" lengthAdjust="spacing" textLength="174.3027" x="787" y="1677.7803">retain-until-confirmed-delete</text><text fill="#334155" font-family="Helvetica" font-size="14" lengthAdjust="spacing" textLength="272.3984" x="787" y="1691.7803">requeue: provisioning, updating, terminating</text><text fill="#334155" font-family="Helvetica" font-size="14" lengthAdjust="spacing" textLength="295.6816" x="787" y="1705.7803">provider states: create PROVISIONING; update</text><text fill="#334155" font-family="Helvetica" font-size="14" lengthAdjust="spacing" textLength="192.165" x="787" y="1719.7803">UPDATING; delete DELETING</text><text fill="#334155" font-family="Helvetica" font-size="14" lengthAdjust="spacing" textLength="128.4199" x="787" y="1733.7803">supported drift: none</text><text fill="#334155" font-family="Helvetica" font-size="14" lengthAdjust="spacing" textLength="230.3301" x="787" y="1747.7803">reject before mutate: force-new fields</text><text fill="#334155" font-family="Helvetica" font-size="14" lengthAdjust="spacing" textLength="100.3789" x="787" y="1761.7803">compartment_id</text><text fill="#334155" font-family="Helvetica" font-size="14" lengthAdjust="spacing" textLength="144.751" x="787" y="1775.7803">create-only fields: none</text><text fill="#334155" font-family="Helvetica" font-size="14" lengthAdjust="spacing" textLength="66.1445" x="787" y="1789.7803">list lookup:</text><text fill="#334155" font-family="Helvetica" font-size="14" lengthAdjust="spacing" textLength="285.6533" x="787" y="1803.7803">oci_distributeddatabase_distributed_database</text><text fill="#334155" font-family="Helvetica" font-size="14" lengthAdjust="spacing" textLength="175.8477" x="787" y="1817.7803">filters compartment_id, state</text><text fill="#334155" font-family="Helvetica" font-size="14" lengthAdjust="spacing" textLength="89.4961" x="787" y="1831.7803">conflicts: none</text><text fill="#334155" font-family="Helvetica" font-size="14" lengthAdjust="spacing" textLength="104.3164" x="787" y="1845.7803">open gaps: none</text><text fill="#334155" font-family="Helvetica" font-size="14" lengthAdjust="spacing" textLength="224.9023" x="787" y="1859.7803">Scaffold metadata only; replace with</text><text fill="#334155" font-family="Helvetica" font-size="14" lengthAdjust="spacing" textLength="244.3232" x="787" y="1873.7803">controller-specific runtime states before</text><text fill="#334155" font-family="Helvetica" font-size="14" lengthAdjust="spacing" textLength="66.1445" x="787" y="1887.7803">promotion.</text><?plantuml-src fLVRRjj647tdLmpIbmGGxJYsSv7X0edbDaRSEB2IvaL0i2A7qjRBNNPtAKKj-k-TlP0YPIfr6lZ1qbxcSkRCsP6vux9YcfLWbYnNQouNK31XC37jpfnbTmkjQfbVAA4q_5Haz9TtJkHOi5hONvIqxrc9y1R52YtFsF2PAVyBuUYaiycqLkje_MbnzE9PzwPK5j_SYw4eNkJFTqyfdQEE9-OdfyTFN-sSSExZ_l7noT7fQMVVcy-KbgZXw7bYkHK8K_opHfaXf91pOpMVrnRpd5asPmOF9zkrILnBbZn7A9IoS_MrOzuqblvE05XcbUw56zDkjdRpnMVuidXAssICaEKLatRuVlV0Gwnq86bj25xWDPTzG5-TiEFvIzfr9glULZRFJ_6etRfNh9S5AxBadyJd1k_gEHBA5atIYGCkA12jX43TMtv3cDvYfcJ6TxSUtKnltarHhtY6lp795gWV0JFGN-fTkRcuIXmHGAsep7tRevrxr18QSz1ebAWjLt8SbmvppXPKKtCOlgVR8sbJvWEpMZGMSXIKxTxRORj_4sNk2PjimOBqvmv6Oq19vsk40GxEf6woIhPNd85-ncDeFp_MphsnJvB-4NUfZyiOMkEKcU6KmamEDO8d0rmhTKV_62Kqvp9FcB1WDL64W24ouDTAK75yPO0wHrBVRO09ZIpVq2xPDKa_01SIdHx3hsY7_2BfL-kYDSaDbDmOKhXzvgx9re2znmKN5hKPpsIcIaUcaan-uVa8Z6KMd_YKDDQ6pGaIbuVZGwsfryafLP7KW9fXdziBIjNYK292gGeolmqLCSAfyuVRcz-lfbStxw_U__gzk50C7flXM7yCyu7y1kXM4OvqE_JKYihJgpgN7j7QU7CErT0Q4Bc9UUJKn2_l2p7i3aMvvmB5Lt1TDjvMdCtaS9x4s9dSmvDGhcYZATVaylhoutUNwfjk6cmoWKmI6DH41PTCqAkg2IbQDPvuSw5S1poaB1ej8_1Zx9xLlc5fNMy2P-AUwm3wG4e7Qcx8yaCTXB2sWRA2Ukg-rK3IXgYE7I4QoiS7usZxC8T17DTBtlAyf1mDaMmckqqqWayV9gy_-azjjRntmLSD6CuS2PsX153aALkJSCzahdbX0LTCrCm77zdfbvS4e71gitrk-d6Ft5iqhQjAQIelr5NkF9bQ5op3CUc6nEGM_y3CmXmBfH7AsWKp9ZcXVaqbhaCu9kdhKX8bjz4j69IjxHEZAjinINHo_K2YR1s1Guu4Vqw5okn3ozqDsw7lGs_gkwSNT2rXYO8q0fQKWI6zzTftRej6f0w2MDx6hwEPxEnzPfoc6VrPwRlR81YVkLrUqcoftyPYp6IGcdEBn3XFyyo5TNvnU_dwu-NaR2P37Re-F_cLnYST2Qpj7WcIqnnvg1e6iJkFvCefcxO_paDBfZM5Az8eKEsiu1tiljCxuq7J0TIfbLOhRYXDGc0KYEO-4NYeI_9eMvfglbXQK0KCZq9nSlcnEUW_hGpDGrDB18P2gnBi4k7UQBOThubo2T5fugSDdx2RrkCRLx65prV9aHEu910iLJgDxKT3ViLijZn8hjc6KEquQzInSRHUejmAMa85SznobbjLyrMBxjP4opG-P4b5HVAnAQSA5CLMpbbLYSr1mdIsHBkfa7v_KJpkfQ0V9imfXGcrISjOdAojEkaJ_LVhFHYvZ7UoCB2c7W5UHXLQKm-P04rhDQM7X0cWc7b6aKNtuw4VH8aHzM9uXtu8vUEXONMRwXWMJPBfRfAXLmvRlCUD9kTmc7oxMM8dZFVr0NJRm9-XNpP199ruXlch-sISHR5EcfVZh2bv-u2OLjUzW4Ovr_zBpXkIIh699w8vuKOfuSL-dAYCVnd0lRlsfIr6V1hsl0oD_ZT-54qpi61LytsQiOA8baD9k3kRu68xeugGfhhE84fr-MCgp7Z1CwVmbfVnKJKH1mTvgHn13zetwLy0?></g></svg>