<?plantuml 1.2026.2?><svg xmlns="http://www.w3.org/2000/svg" xmlns:xlink="http://www.w3.org/1999/xlink" contentStyleType="text/css" data-diagram-type="SEQUENCE" height="1848px" preserveAspectRatio="none" style="width:1163px;height:1848px;background:#FCFCFD;" version="1.1" viewBox="0 0 1163 1848" width="1163px" zoomAndPan="magnify"><title>Sequence - disasterrecovery/DrPlan</title><defs/><g><rect fill="#FCFCFD" height="1848" style="stroke:none;stroke-width:1;" width="1163" x="0" y="0"/><text fill="#000000" font-family="Helvetica" font-size="14" font-weight="bold" lengthAdjust="spacing" textLength="239.668" x="468.1448" y="25.7803">Sequence - disasterrecovery/DrPlan</text><rect fill="none" height="290" rx="8" ry="8" style="stroke:#CBD5E1;stroke-width:1.5;" width="738.3779" x="401.708" y="314"/><rect fill="none" height="146" rx="8" ry="8" style="stroke:#CBD5E1;stroke-width:1.5;" width="475.9575" x="654.1284" y="423"/><rect fill="none" height="44" rx="8" ry="8" style="stroke:#CBD5E1;stroke-width:1.5;" width="455.9575" x="664.1284" y="474"/><rect fill="none" height="668" rx="8" ry="8" style="stroke:#CBD5E1;stroke-width:1.5;" width="775.2495" x="381.708" y="618"/><rect fill="none" height="246" rx="8" ry="8" style="stroke:#CBD5E1;stroke-width:1.5;" width="738.3779" x="391.708" y="641"/><rect fill="none" height="44" rx="8" ry="8" style="stroke:#CBD5E1;stroke-width:1.5;" width="455.9575" x="664.1284" y="734"/><rect fill="none" height="88" rx="8" ry="8" style="stroke:#CBD5E1;stroke-width:1.5;" width="438.813" x="401.708" y="792"/><rect fill="none" height="248" rx="8" ry="8" style="stroke:#CBD5E1;stroke-width:1.5;" width="755.2495" x="391.708" y="989"/><rect fill="none" height="44" rx="8" ry="8" style="stroke:#CBD5E1;stroke-width:1.5;" width="438.813" x="401.708" y="1088"/><g class="participant-lifeline" data-entity-uid="part1" data-qualified-name="Kubernetes" id="part1-lifeline"><g><title>Kubernetes</title><rect fill="#000000" fill-opacity="0.00000" height="1727" width="8" x="39.8032" y="114"/><line style="stroke:#94A3B8;stroke-width:0.5;stroke-dasharray:5,5;" x1="43" x2="43" y1="114" y2="1841"/></g></g><g class="participant-lifeline" data-entity-uid="part2" data-qualified-name="Controller" id="part2-lifeline"><g><title>Controller</title><rect fill="#000000" fill-opacity="0.00000" height="1727" width="8" x="224.9058" y="114"/><line style="stroke:#94A3B8;stroke-width:0.5;stroke-dasharray:5,5;" x1="228.561" x2="228.561" y1="114" y2="1841"/></g></g><g class="participant-lifeline" data-entity-uid="part3" data-qualified-name="BaseReconciler" id="part3-lifeline"><g><title>BaseReconciler</title><rect fill="#000000" fill-opacity="0.00000" height="1727" width="8" x="463.7319" y="114"/><line style="stroke:#94A3B8;stroke-width:0.5;stroke-dasharray:5,5;" x1="467.708" x2="467.708" y1="114" y2="1841"/></g></g><g class="participant-lifeline" data-entity-uid="part4" data-qualified-name="ServiceManager" id="part4-lifeline"><g><title>OSOKServiceManager</title><rect fill="#000000" fill-opacity="0.00000" height="1727" width="8" x="748.3247" y="114"/><line style="stroke:#94A3B8;stroke-width:0.5;stroke-dasharray:5,5;" x1="752.1284" x2="752.1284" y1="114" y2="1841"/></g></g><g class="participant-lifeline" data-entity-uid="part5" data-qualified-name="OCI" id="part5-lifeline"><g><title>OCI</title><rect fill="#000000" fill-opacity="0.00000" height="1727" width="8" x="1086.6411" y="114"/><line style="stroke:#94A3B8;stroke-width:0.5;stroke-dasharray:5,5;" x1="1090.1963" x2="1090.1963" y1="114" y2="1841"/></g></g><g class="participant participant-head" data-entity-uid="part1" data-qualified-name="Kubernetes" id="part1-head"><text fill="#000000" font-family="Helvetica" font-size="14" lengthAdjust="spacing" textLength="71.6064" x="5" y="110.7803">Kubernetes</text><ellipse cx="43.8032" cy="48.5" fill="#E2E8F0" rx="8" ry="8" style="stroke:#0F172A;stroke-width:0.5;"/><path d="M43.8032,56.5 L43.8032,83.5 M30.8032,64.5 L56.8032,64.5 M43.8032,83.5 L30.8032,98.5 M43.8032,83.5 L56.8032,98.5" fill="none" style="stroke:#0F172A;stroke-width:0.5;"/></g><g class="participant participant-head" data-entity-uid="part2" data-qualified-name="Controller" id="part2-head"><rect fill="#E2E8F0" height="28" rx="8" ry="8" style="stroke:#0F172A;stroke-width:0.5;" width="74.6895" x="191.561" y="85"/><text fill="#0F172A" font-family="Helvetica" font-size="14" lengthAdjust="spacing" textLength="60.6895" x="198.561" y="102.7803">Controller</text></g><g class="participant participant-head" data-entity-uid="part3" data-qualified-name="BaseReconciler" id="part3-head"><rect fill="#E2E8F0" height="28" rx="8" ry="8" style="stroke:#0F172A;stroke-width:0.5;" width="112.0479" x="411.708" y="85"/><text fill="#0F172A" font-family="Helvetica" font-size="14" lengthAdjust="spacing" textLength="98.0479" x="418.708" y="102.7803">BaseReconciler</text></g><g class="participant participant-head" data-entity-uid="part4" data-qualified-name="ServiceManager" id="part4-head"><rect fill="#E2E8F0" height="28" rx="8" ry="8" style="stroke:#0F172A;stroke-width:0.5;" width="156.3926" x="674.1284" y="85"/><text fill="#0F172A" font-family="Helvetica" font-size="14" lengthAdjust="spacing" textLength="142.3926" x="681.1284" y="102.7803">OSOKServiceManager</text></g><g class="participant participant-head" data-entity-uid="part5" data-qualified-name="OCI" id="part5-head"><rect fill="#E2E8F0" height="28" rx="8" ry="8" style="stroke:#0F172A;stroke-width:0.5;" width="38.8896" x="1071.1963" y="85"/><text fill="#0F172A" font-family="Helvetica" font-size="14" lengthAdjust="spacing" textLength="24.8896" x="1078.1963" y="102.7803">OCI</text></g><path d="M403,137 L403,187 A8,8 0 0 0 411,195 L808,195 A8,8 0 0 0 816,187 L816,139 L806,129 L411,129 A8,8 0 0 0 403,137" fill="#FFF7D6" style="stroke:#B45309;stroke-width:0.5;"/><path d="M806,129 L806,135 A4,4 0 0 0 810,139 L816,139 L806,129" fill="#FFF7D6" style="stroke:#B45309;stroke-width:0.5;"/><text fill="#334155" font-family="Helvetica" font-size="14" lengthAdjust="spacing" textLength="111.2891" x="451.7107" y="144.7803">shared resolution:</text><text fill="#334155" font-family="Helvetica" font-size="14" lengthAdjust="spacing" textLength="307.3916" x="451.7107" y="158.7803">shared/diagrams/shared-resolution-sequence.svg</text><text fill="#334155" font-family="Helvetica" font-size="14" lengthAdjust="spacing" textLength="88.7305" x="451.7107" y="172.7803">shared delete:</text><text fill="#334155" font-family="Helvetica" font-size="14" lengthAdjust="spacing" textLength="284.833" x="451.7107" y="186.7803">shared/diagrams/shared-delete-sequence.svg</text><g class="message" data-entity-1="part1" data-entity-2="part2" id="msg1"><polygon fill="#0F172A" points="216.9058,216,226.9058,220,216.9058,224,220.9058,220" style="stroke:#0F172A;stroke-width:1;"/><line style="stroke:#0F172A;stroke-width:1;" x1="43.8032" x2="222.9058" y1="220" y2="220"/><text fill="#000000" font-family="Helvetica" font-size="14" lengthAdjust="spacing" textLength="161.1025" x="50.8032" y="214.7803">enqueue DrPlan reconcile</text></g><g class="message" data-entity-1="part2" data-entity-2="part3" id="msg2"><polygon fill="#0F172A" points="455.7319,244,465.7319,248,455.7319,252,459.7319,248" style="stroke:#0F172A;stroke-width:1;"/><line style="stroke:#0F172A;stroke-width:1;" x1="228.9058" x2="461.7319" y1="248" y2="248"/><text fill="#000000" font-family="Helvetica" font-size="14" lengthAdjust="spacing" textLength="117.4961" x="235.9058" y="242.7803">Reconcile(request)</text></g><g class="message" data-entity-1="part3" data-entity-2="part4" id="msg3"><polygon fill="#0F172A" points="740.3247,272,750.3247,276,740.3247,280,744.3247,276" style="stroke:#0F172A;stroke-width:1;"/><line style="stroke:#0F172A;stroke-width:1;" x1="467.7319" x2="746.3247" y1="276" y2="276"/><text fill="#000000" font-family="Helvetica" font-size="14" lengthAdjust="spacing" textLength="152.5166" x="474.7319" y="270.7803">reconcile desired DrPlan</text></g><path d="M409.708,314 L463.0459,314 L463.0459,320 L453.0459,330 L401.708,330 L401.708,322 A8,8 0 0 1 409.708,314" fill="#F8FAFC" style="stroke:#CBD5E1;stroke-width:1.5;"/><rect fill="none" height="290" rx="8" ry="8" style="stroke:#CBD5E1;stroke-width:1.5;" width="738.3779" x="401.708" y="314"/><text fill="#000000" font-family="Helvetica" font-size="14" font-weight="bold" lengthAdjust="spacing" textLength="16.3379" x="416.708" y="325.7803">alt</text><text fill="#000000" font-family="Helvetica" font-size="14" font-weight="bold" lengthAdjust="spacing" textLength="308.1094" x="478.0459" y="326.7803">[tracked or explicit OCI identity already exists]</text><g class="message" data-entity-1="part4" data-entity-2="part5" id="msg4"><polygon fill="#0F172A" points="1078.6411,346,1088.6411,350,1078.6411,354,1082.6411,350" style="stroke:#0F172A;stroke-width:1;"/><line style="stroke:#0F172A;stroke-width:1;" x1="752.3247" x2="1084.6411" y1="350" y2="350"/><text fill="#000000" font-family="Helvetica" font-size="14" lengthAdjust="spacing" textLength="65.3584" x="759.3247" y="344.7803">GetDrPlan</text></g><line style="stroke:#CBD5E1;stroke-width:1;stroke-dasharray:2,2;" x1="401.708" x2="1140.0859" y1="359" y2="359"/><text fill="#000000" font-family="Helvetica" font-size="14" font-weight="bold" lengthAdjust="spacing" textLength="185.1582" x="406.708" y="369.7803">[tracked identity is missing]</text><g class="message" data-entity-1="part4" data-entity-2="part5" id="msg5"><polygon fill="#0F172A" points="1078.6411,404,1088.6411,408,1078.6411,412,1082.6411,408" style="stroke:#0F172A;stroke-width:1;"/><line style="stroke:#0F172A;stroke-width:1;" x1="752.3247" x2="1084.6411" y1="408" y2="408"/><text fill="#000000" font-family="Helvetica" font-size="14" lengthAdjust="spacing" textLength="214.7373" x="759.3247" y="388.7803">ListDrPlan(filters: compartment_id,</text><text fill="#000000" font-family="Helvetica" font-size="14" lengthAdjust="spacing" textLength="35.0137" x="759.3247" y="402.7803">state)</text></g><path d="M662.1284,423 L715.4663,423 L715.4663,429 L705.4663,439 L654.1284,439 L654.1284,431 A8,8 0 0 1 662.1284,423" fill="#F8FAFC" style="stroke:#CBD5E1;stroke-width:1.5;"/><rect fill="none" height="146" rx="8" ry="8" style="stroke:#CBD5E1;stroke-width:1.5;" width="475.9575" x="654.1284" y="423"/><text fill="#000000" font-family="Helvetica" font-size="14" font-weight="bold" lengthAdjust="spacing" textLength="16.3379" x="669.1284" y="434.7803">alt</text><text fill="#000000" font-family="Helvetica" font-size="14" font-weight="bold" lengthAdjust="spacing" textLength="242.7031" x="730.4663" y="435.7803">[reusable OCI resource is not found]</text><g class="message" data-entity-1="part4" data-entity-2="part5" id="msg6"><polygon fill="#0F172A" points="1078.6411,455,1088.6411,459,1078.6411,463,1082.6411,459" style="stroke:#0F172A;stroke-width:1;"/><line style="stroke:#0F172A;stroke-width:1;" x1="752.3247" x2="1084.6411" y1="459" y2="459"/><text fill="#000000" font-family="Helvetica" font-size="14" lengthAdjust="spacing" textLength="84.8135" x="759.3247" y="453.7803">CreateDrPlan</text></g><path d="M672.1284,474 L738.6733,474 L738.6733,480 L728.6733,490 L664.1284,490 L664.1284,482 A8,8 0 0 1 672.1284,474" fill="#F8FAFC" style="stroke:#CBD5E1;stroke-width:1.5;"/><rect fill="none" height="44" rx="8" ry="8" style="stroke:#CBD5E1;stroke-width:1.5;" width="455.9575" x="664.1284" y="474"/><text fill="#000000" font-family="Helvetica" font-size="14" font-weight="bold" lengthAdjust="spacing" textLength="29.5449" x="679.1284" y="485.7803">loop</text><text fill="#000000" font-family="Helvetica" font-size="14" font-weight="bold" lengthAdjust="spacing" textLength="215.4756" x="753.6733" y="486.7803">[create pending PROVISIONING]</text><g class="message" data-entity-1="part4" data-entity-2="part5" id="msg7"><polygon fill="#0F172A" points="1078.6411,506,1088.6411,510,1078.6411,514,1082.6411,510" style="stroke:#0F172A;stroke-width:1;"/><line style="stroke:#0F172A;stroke-width:1;" x1="752.3247" x2="1084.6411" y1="510" y2="510"/><text fill="#000000" font-family="Helvetica" font-size="14" lengthAdjust="spacing" textLength="65.3584" x="759.3247" y="504.7803">GetDrPlan</text></g><line style="stroke:#CBD5E1;stroke-width:1;stroke-dasharray:2,2;" x1="654.1284" x2="1130.0859" y1="526" y2="526"/><text fill="#000000" font-family="Helvetica" font-size="14" font-weight="bold" lengthAdjust="spacing" textLength="255.2334" x="659.1284" y="536.7803">[reusable OCI resource already exists]</text><g class="message" data-entity-1="part4" data-entity-2="part5" id="msg8"><polygon fill="#0F172A" points="1078.6411,557,1088.6411,561,1078.6411,565,1082.6411,561" style="stroke:#0F172A;stroke-width:1;"/><line style="stroke:#0F172A;stroke-width:1;" x1="752.3247" x2="1084.6411" y1="561" y2="561"/><text fill="#000000" font-family="Helvetica" font-size="14" lengthAdjust="spacing" textLength="65.3584" x="759.3247" y="555.7803">GetDrPlan</text></g><g class="message" data-entity-1="part4" data-entity-2="part3" id="msg9"><polygon fill="#0F172A" points="478.7319,592,468.7319,596,478.7319,600,474.7319,596" style="stroke:#0F172A;stroke-width:1;"/><line style="stroke:#0F172A;stroke-width:1;stroke-dasharray:2,2;" x1="472.7319" x2="751.3247" y1="596" y2="596"/><text fill="#000000" font-family="Helvetica" font-size="14" lengthAdjust="spacing" textLength="231.0957" x="484.7319" y="590.7803">persist resolved OCI identity in status</text></g><path d="M389.708,618 L443.0459,618 L443.0459,624 L433.0459,634 L381.708,634 L381.708,626 A8,8 0 0 1 389.708,618" fill="#F8FAFC" style="stroke:#CBD5E1;stroke-width:1.5;"/><rect fill="none" height="668" rx="8" ry="8" style="stroke:#CBD5E1;stroke-width:1.5;" width="775.2495" x="381.708" y="618"/><text fill="#000000" font-family="Helvetica" font-size="14" font-weight="bold" lengthAdjust="spacing" textLength="16.3379" x="396.708" y="629.7803">alt</text><text fill="#000000" font-family="Helvetica" font-size="14" font-weight="bold" lengthAdjust="spacing" textLength="120.5859" x="458.0459" y="630.7803">[delete requested]</text><path d="M399.708,641 L478.7285,641 L478.7285,647 L468.7285,657 L391.708,657 L391.708,649 A8,8 0 0 1 399.708,641" fill="#F8FAFC" style="stroke:#CBD5E1;stroke-width:1.5;"/><rect fill="none" height="246" rx="8" ry="8" style="stroke:#CBD5E1;stroke-width:1.5;" width="738.3779" x="391.708" y="641"/><text fill="#000000" font-family="Helvetica" font-size="14" font-weight="bold" lengthAdjust="spacing" textLength="42.0205" x="406.708" y="652.7803">Delete</text><g class="message" data-entity-1="part4" data-entity-2="part5" id="msg10"><polygon fill="#0F172A" points="1078.6411,673,1088.6411,677,1078.6411,681,1082.6411,677" style="stroke:#0F172A;stroke-width:1;"/><line style="stroke:#0F172A;stroke-width:1;" x1="752.3247" x2="1084.6411" y1="677" y2="677"/><text fill="#000000" font-family="Helvetica" font-size="14" lengthAdjust="spacing" textLength="83.2617" x="759.3247" y="671.7803">DeleteDrPlan</text></g><g class="message" data-entity-1="part4" data-entity-2="part5" id="msg11"><polygon fill="#0F172A" points="1078.6411,715,1088.6411,719,1078.6411,723,1082.6411,719" style="stroke:#0F172A;stroke-width:1;"/><line style="stroke:#0F172A;stroke-width:1;" x1="752.3247" x2="1084.6411" y1="719" y2="719"/><text fill="#000000" font-family="Helvetica" font-size="14" lengthAdjust="spacing" textLength="195.3027" x="759.3247" y="699.7803">confirm delete via GetDrPlan or</text><text fill="#000000" font-family="Helvetica" font-size="14" lengthAdjust="spacing" textLength="64.5791" x="759.3247" y="713.7803">ListDrPlan</text></g><path d="M672.1284,734 L738.6733,734 L738.6733,740 L728.6733,750 L664.1284,750 L664.1284,742 A8,8 0 0 1 672.1284,734" fill="#F8FAFC" style="stroke:#CBD5E1;stroke-width:1.5;"/><rect fill="none" height="44" rx="8" ry="8" style="stroke:#CBD5E1;stroke-width:1.5;" width="455.9575" x="664.1284" y="734"/><text fill="#000000" font-family="Helvetica" font-size="14" font-weight="bold" lengthAdjust="spacing" textLength="29.5449" x="679.1284" y="745.7803">loop</text><text fill="#000000" font-family="Helvetica" font-size="14" font-weight="bold" lengthAdjust="spacing" textLength="182.7793" x="753.6733" y="746.7803">[delete pending DELETING]</text><g class="message" data-entity-1="part4" data-entity-2="part5" id="msg12"><polygon fill="#0F172A" points="1078.6411,766,1088.6411,770,1078.6411,774,1082.6411,770" style="stroke:#0F172A;stroke-width:1;"/><line style="stroke:#0F172A;stroke-width:1;" x1="752.3247" x2="1084.6411" y1="770" y2="770"/><text fill="#000000" font-family="Helvetica" font-size="14" lengthAdjust="spacing" textLength="150.165" x="759.3247" y="764.7803">GetDrPlan or ListDrPlan</text></g><path d="M409.708,792 L463.0459,792 L463.0459,798 L453.0459,808 L401.708,808 L401.708,800 A8,8 0 0 1 409.708,792" fill="#F8FAFC" style="stroke:#CBD5E1;stroke-width:1.5;"/><rect fill="none" height="88" rx="8" ry="8" style="stroke:#CBD5E1;stroke-width:1.5;" width="438.813" x="401.708" y="792"/><text fill="#000000" font-family="Helvetica" font-size="14" font-weight="bold" lengthAdjust="spacing" textLength="16.3379" x="416.708" y="803.7803">alt</text><text fill="#000000" font-family="Helvetica" font-size="14" font-weight="bold" lengthAdjust="spacing" textLength="261.4268" x="478.0459" y="804.7803">[cleanup or finalizer release is blocked]</text><g class="message" data-entity-1="part4" data-entity-2="part3" id="msg13"><polygon fill="#0F172A" points="478.7319,824,468.7319,828,478.7319,832,474.7319,828" style="stroke:#0F172A;stroke-width:1;"/><line style="stroke:#0F172A;stroke-width:1;stroke-dasharray:2,2;" x1="472.7319" x2="751.3247" y1="828" y2="828"/><text fill="#000000" font-family="Helvetica" font-size="14" lengthAdjust="spacing" textLength="170.4336" x="484.7319" y="822.7803">retain delete state and retry</text></g><line style="stroke:#CBD5E1;stroke-width:1;stroke-dasharray:2,2;" x1="401.708" x2="840.521" y1="837" y2="837"/><text fill="#000000" font-family="Helvetica" font-size="14" font-weight="bold" lengthAdjust="spacing" textLength="194.4824" x="406.708" y="847.7803">[delete completion observed]</text><g class="message" data-entity-1="part4" data-entity-2="part3" id="msg14"><polygon fill="#0F172A" points="478.7319,868,468.7319,872,478.7319,876,474.7319,872" style="stroke:#0F172A;stroke-width:1;"/><line style="stroke:#0F172A;stroke-width:1;stroke-dasharray:2,2;" x1="472.7319" x2="751.3247" y1="872" y2="872"/><text fill="#000000" font-family="Helvetica" font-size="14" lengthAdjust="spacing" textLength="243.5781" x="484.7319" y="866.7803">release finalizer after delete completion</text></g><line style="stroke:#CBD5E1;stroke-width:1;stroke-dasharray:2,2;" x1="381.708" x2="1156.9575" y1="895" y2="895"/><text fill="#000000" font-family="Helvetica" font-size="14" font-weight="bold" lengthAdjust="spacing" textLength="149.3857" x="386.708" y="905.7803">[OCI state is retryable]</text><g class="message" data-entity-1="part4" data-entity-2="part3" id="msg15"><polygon fill="#0F172A" points="478.7319,940,468.7319,944,478.7319,948,474.7319,944" style="stroke:#0F172A;stroke-width:1;"/><line style="stroke:#0F172A;stroke-width:1;stroke-dasharray:2,2;" x1="472.7319" x2="751.3247" y1="944" y2="944"/><text fill="#000000" font-family="Helvetica" font-size="14" lengthAdjust="spacing" textLength="184.4199" x="484.7319" y="924.7803">requeue while OCI remains in</text><text fill="#000000" font-family="Helvetica" font-size="14" lengthAdjust="spacing" textLength="260.5928" x="484.7319" y="938.7803">PROVISIONING, UPDATING, DELETING</text></g><line style="stroke:#CBD5E1;stroke-width:1;stroke-dasharray:2,2;" x1="381.708" x2="1156.9575" y1="953" y2="953"/><text fill="#000000" font-family="Helvetica" font-size="14" font-weight="bold" lengthAdjust="spacing" textLength="200.751" x="386.708" y="963.7803">[live state requires field-aware</text><text fill="#000000" font-family="Helvetica" font-size="14" font-weight="bold" lengthAdjust="spacing" textLength="105.0068" x="386.708" y="977.7803">drift evaluation]</text><path d="M399.708,989 L527.6943,989 L527.6943,995 L517.6943,1005 L391.708,1005 L391.708,997 A8,8 0 0 1 399.708,989" fill="#F8FAFC" style="stroke:#CBD5E1;stroke-width:1.5;"/><rect fill="none" height="248" rx="8" ry="8" style="stroke:#CBD5E1;stroke-width:1.5;" width="755.2495" x="391.708" y="989"/><text fill="#000000" font-family="Helvetica" font-size="14" font-weight="bold" lengthAdjust="spacing" textLength="90.9863" x="406.708" y="1000.7803">Drift handling</text><path d="M706,1018 L706,1068 A8,8 0 0 0 714,1076 L1128,1076 A8,8 0 0 0 1136,1068 L1136,1020 L1126,1010 L714,1010 A8,8 0 0 0 706,1018" fill="#FFF7D6" style="stroke:#B45309;stroke-width:0.5;"/><path d="M1126,1010 L1126,1016 A4,4 0 0 0 1130,1020 L1136,1020 L1126,1010" fill="#FFF7D6" style="stroke:#B45309;stroke-width:0.5;"/><text fill="#334155" font-family="Helvetica" font-size="14" lengthAdjust="spacing" textLength="200.04" x="799.0896" y="1025.7803">Supported update surface: none</text><text fill="#334155" font-family="Helvetica" font-size="14" lengthAdjust="spacing" textLength="235.7783" x="799.0896" y="1039.7803">Reject before mutate: force-new fields</text><text fill="#334155" font-family="Helvetica" font-size="14" lengthAdjust="spacing" textLength="100.3789" x="799.0896" y="1053.7803">compartment_id</text><text fill="#334155" font-family="Helvetica" font-size="14" lengthAdjust="spacing" textLength="229.5576" x="799.0896" y="1067.7803">Lookup filters: compartment_id, state</text><path d="M409.708,1088 L468.4736,1088 L468.4736,1094 L458.4736,1104 L401.708,1104 L401.708,1096 A8,8 0 0 1 409.708,1088" fill="#F8FAFC" style="stroke:#CBD5E1;stroke-width:1.5;"/><rect fill="none" height="44" rx="8" ry="8" style="stroke:#CBD5E1;stroke-width:1.5;" width="438.813" x="401.708" y="1088"/><text fill="#000000" font-family="Helvetica" font-size="14" font-weight="bold" lengthAdjust="spacing" textLength="21.7656" x="416.708" y="1099.7803">opt</text><text fill="#000000" font-family="Helvetica" font-size="14" font-weight="bold" lengthAdjust="spacing" textLength="276.1309" x="483.4736" y="1100.7803">[force-new or conflicting drift is detected]</text><g class="message" data-entity-1="part4" data-entity-2="part3" id="msg16"><polygon fill="#0F172A" points="478.7319,1120,468.7319,1124,478.7319,1128,474.7319,1124" style="stroke:#0F172A;stroke-width:1;"/><line style="stroke:#0F172A;stroke-width:1;stroke-dasharray:2,2;" x1="472.7319" x2="751.3247" y1="1124" y2="1124"/><text fill="#000000" font-family="Helvetica" font-size="14" lengthAdjust="spacing" textLength="164.1855" x="484.7319" y="1118.7803">reject before OCI mutation</text></g><g class="message" data-entity-1="part4" data-entity-2="part5" id="msg17"><polygon fill="#0F172A" points="1078.6411,1225,1088.6411,1229,1078.6411,1233,1082.6411,1229" style="stroke:#0F172A;stroke-width:1;"/><line style="stroke:#0F172A;stroke-width:1;" x1="752.3247" x2="1084.6411" y1="1229" y2="1229"/><text fill="#000000" font-family="Helvetica" font-size="14" lengthAdjust="spacing" textLength="104.2891" x="759.3247" y="1153.7803">run helper hooks</text><text fill="#000000" font-family="Helvetica" font-size="14" lengthAdjust="spacing" textLength="219.0508" x="759.3247" y="1167.7803">create=tfresource.CreateResource,</text><text fill="#000000" font-family="Helvetica" font-size="14" lengthAdjust="spacing" textLength="314.3164" x="759.3247" y="1181.7803">tfresource.WaitForWorkRequestWithErrorHandling</text><text fill="#000000" font-family="Helvetica" font-size="14" lengthAdjust="spacing" textLength="215.5439" x="759.3247" y="1195.7803">entity=template action=CREATED;</text><text fill="#000000" font-family="Helvetica" font-size="14" lengthAdjust="spacing" textLength="226.085" x="759.3247" y="1209.7803">update=tfresource.UpdateResource;</text><text fill="#000000" font-family="Helvetica" font-size="14" lengthAdjust="spacing" textLength="212.8438" x="759.3247" y="1223.7803">delete=tfresource.DeleteResource</text></g><g class="message" data-entity-1="part4" data-entity-2="part3" id="msg18"><polygon fill="#0F172A" points="478.7319,1274,468.7319,1278,478.7319,1282,474.7319,1278" style="stroke:#0F172A;stroke-width:1;"/><line style="stroke:#0F172A;stroke-width:1;stroke-dasharray:2,2;" x1="472.7319" x2="751.3247" y1="1278" y2="1278"/><text fill="#000000" font-family="Helvetica" font-size="14" lengthAdjust="spacing" textLength="100.7822" x="484.7319" y="1258.7803">status=required,</text><text fill="#000000" font-family="Helvetica" font-size="14" lengthAdjust="spacing" textLength="230.7197" x="484.7319" y="1272.7803">finalizer=retain-until-confirmed-delete</text></g><g class="message" data-entity-1="part3" data-entity-2="part2" id="msg19"><polygon fill="#0F172A" points="239.9058,1323,229.9058,1327,239.9058,1331,235.9058,1327" style="stroke:#0F172A;stroke-width:1;"/><line style="stroke:#0F172A;stroke-width:1;stroke-dasharray:2,2;" x1="233.9058" x2="466.7319" y1="1327" y2="1327"/><text fill="#000000" font-family="Helvetica" font-size="14" lengthAdjust="spacing" textLength="214.8262" x="245.9058" y="1307.7803">requeue on provisioning, updating,</text><text fill="#000000" font-family="Helvetica" font-size="14" lengthAdjust="spacing" textLength="69.2549" x="245.9058" y="1321.7803">terminating</text></g><path d="M757,1348 L757,1818 A8,8 0 0 0 765,1826 L1077,1826 A8,8 0 0 0 1085,1818 L1085,1350 L1075,1340 L765,1340 A8,8 0 0 0 757,1348" fill="#FFF7D6" style="stroke:#B45309;stroke-width:0.5;"/><path d="M1075,1340 L1075,1346 A4,4 0 0 0 1079,1350 L1085,1350 L1075,1340" fill="#FFF7D6" style="stroke:#B45309;stroke-width:0.5;"/><text fill="#334155" font-family="Helvetica" font-size="14" lengthAdjust="spacing" textLength="101.165" x="763" y="1355.7803">shared diagram:</text><text fill="#334155" font-family="Helvetica" font-size="14" lengthAdjust="spacing" textLength="307.3916" x="763" y="1369.7803">shared/diagrams/shared-resolution-sequence.svg</text><text fill="#334155" font-family="Helvetica" font-size="14" lengthAdjust="spacing" textLength="143.1992" x="763" y="1383.7803">shared delete diagram:</text><text fill="#334155" font-family="Helvetica" font-size="14" lengthAdjust="spacing" textLength="284.833" x="763" y="1397.7803">shared/diagrams/shared-delete-sequence.svg</text><text fill="#334155" font-family="Helvetica" font-size="14" lengthAdjust="spacing" textLength="280.9297" x="763" y="1411.7803">Start from the shared resolution sequence for</text><text fill="#334155" font-family="Helvetica" font-size="14" lengthAdjust="spacing" textLength="260.7295" x="763" y="1425.7803">OCID binding, datasource pagination, and</text><text fill="#334155" font-family="Helvetica" font-size="14" lengthAdjust="spacing" textLength="163.4268" x="763" y="1439.7803">create-or-update dispatch.</text><text fill="#334155" font-family="Helvetica" font-size="14" lengthAdjust="spacing" textLength="301.1982" x="763" y="1453.7803">Layer the shared delete sequence when finalizer</text><text fill="#334155" font-family="Helvetica" font-size="14" lengthAdjust="spacing" textLength="269.2471" x="763" y="1467.7803">retention, delete confirmation, work-request</text><text fill="#334155" font-family="Helvetica" font-size="14" lengthAdjust="spacing" textLength="199.2334" x="763" y="1481.7803">polling, or Secret cleanup apply.</text><text fill="#334155" font-family="Helvetica" font-size="14" lengthAdjust="spacing" textLength="281.709" x="763" y="1495.7803">archetype batch: Generated service-manager</text><text fill="#334155" font-family="Helvetica" font-size="14" lengthAdjust="spacing" textLength="266.1504" x="763" y="1509.7803">controllers follow the shared resolution and</text><text fill="#334155" font-family="Helvetica" font-size="14" lengthAdjust="spacing" textLength="259.9297" x="763" y="1523.7803">delete sequences with imported waits and</text><text fill="#334155" font-family="Helvetica" font-size="14" lengthAdjust="spacing" textLength="134.6064" x="763" y="1537.7803">controller-local policy.</text><text fill="#334155" font-family="Helvetica" font-size="14" lengthAdjust="spacing" textLength="154.8271" x="763" y="1551.7803">service: disasterrecovery</text><text fill="#334155" font-family="Helvetica" font-size="14" lengthAdjust="spacing" textLength="72.3789" x="763" y="1565.7803">slug: drplan</text><text fill="#334155" font-family="Helvetica" font-size="14" lengthAdjust="spacing" textLength="76.2549" x="763" y="1579.7803">kind: DrPlan</text><text fill="#334155" font-family="Helvetica" font-size="14" lengthAdjust="spacing" textLength="241.2402" x="763" y="1593.7803">archetype: generated-service-manager</text><text fill="#334155" font-family="Helvetica" font-size="14" lengthAdjust="spacing" textLength="156.4063" x="763" y="1607.7803">status/finalizer: required /</text><text fill="#334155" font-family="Helvetica" font-size="14" lengthAdjust="spacing" textLength="174.3027" x="763" y="1621.7803">retain-until-confirmed-delete</text><text fill="#334155" font-family="Helvetica" font-size="14" lengthAdjust="spacing" textLength="272.3984" x="763" y="1635.7803">requeue: provisioning, updating, terminating</text><text fill="#334155" font-family="Helvetica" font-size="14" lengthAdjust="spacing" textLength="295.6816" x="763" y="1649.7803">provider states: create PROVISIONING; update</text><text fill="#334155" font-family="Helvetica" font-size="14" lengthAdjust="spacing" textLength="192.165" x="763" y="1663.7803">UPDATING; delete DELETING</text><text fill="#334155" font-family="Helvetica" font-size="14" lengthAdjust="spacing" textLength="128.4199" x="763" y="1677.7803">supported drift: none</text><text fill="#334155" font-family="Helvetica" font-size="14" lengthAdjust="spacing" textLength="230.3301" x="763" y="1691.7803">reject before mutate: force-new fields</text><text fill="#334155" font-family="Helvetica" font-size="14" lengthAdjust="spacing" textLength="100.3789" x="763" y="1705.7803">compartment_id</text><text fill="#334155" font-family="Helvetica" font-size="14" lengthAdjust="spacing" textLength="144.751" x="763" y="1719.7803">create-only fields: none</text><text fill="#334155" font-family="Helvetica" font-size="14" lengthAdjust="spacing" textLength="260.6953" x="763" y="1733.7803">list lookup: oci_disaster_recovery_dr_plan</text><text fill="#334155" font-family="Helvetica" font-size="14" lengthAdjust="spacing" textLength="175.8477" x="763" y="1747.7803">filters compartment_id, state</text><text fill="#334155" font-family="Helvetica" font-size="14" lengthAdjust="spacing" textLength="89.4961" x="763" y="1761.7803">conflicts: none</text><text fill="#334155" font-family="Helvetica" font-size="14" lengthAdjust="spacing" textLength="104.3164" x="763" y="1775.7803">open gaps: none</text><text fill="#334155" font-family="Helvetica" font-size="14" lengthAdjust="spacing" textLength="224.9023" x="763" y="1789.7803">Scaffold metadata only; replace with</text><text fill="#334155" font-family="Helvetica" font-size="14" lengthAdjust="spacing" textLength="244.3232" x="763" y="1803.7803">controller-specific runtime states before</text><text fill="#334155" font-family="Helvetica" font-size="14" lengthAdjust="spacing" textLength="66.1445" x="763" y="1817.7803">promotion.</text><?plantuml-src fLVRRXit47tVhnYaBmdWjUFOpcKD5qXiDp7Yne6LD2y636ftLcBD9RSaLufQzDyxlArMijIgBVnWYHpEvSoPGyeySDaopHemKrQfEPSJg9amc9b-PypAXubMdQpEbL0QVgXB-gi65XNMh1Fs9oNj9zOWV40nGyjBjjbcn7z7E3mUR3AjrJnwVruVldenF2cLnNUFSgZhLzNBTIkbAzJHOdnySlJypPg52n_tZuwE3qzE1llUVQcqH0s7BpFBhK0OuMyToX8XXueRPYngZQMQeLuSNEZFWibioYk4MYaxLjy7xamw-KS6m4ghz4fwiSoqjLuVli3NzNFQ9cU496-Pj9lF3mrsyJA0eFSXU8tNNAu2-EQO7OrVqwvpsQvibUFg10_xhKVDULspkip-p7njyB4R8w5gqMI3FE2S4j5A2DGho--OmLk2M9PyVUl9pUZcumZrZ9VuCvDiWle9C0EhIoj7RiwlCjTuS2rRyxstTev6G6C56eqIdULA5d7feE9iGZqr1-5xlZJ9KvltpMoIF5GegDgjfyFswacKbITejWGByXy761M0akmxX40xqAcER6daZgpMM43_-Qbs0OrzbgsQk4EhI1HBvrIBuQwcI7RVSBXMwe7-CKfwp6MLCM71Qg816LB3yNihg04UVQ3fa3HB2s128wiMjCkDDTbgI9S4MHVm7cqCXIH3lTVU2pVGS6D8gBPvk2RtmSNJcWiQM5D0gHh7YeQStFDgxquQoom-yubhx0mRKwakMzVPJjFKKXpg1yqrqNfRf7Cgo69CLoZLGkbNeALsEYdzV7lpozNewkRJrQVtEnHCaNpHcpFwr_XjI7m3Fre2Y1m6siy8wfMcSGaEgivuTmwkm5w8PC8gKkB2Bs_BAkp6nBROK4errqqACEDiMGonwauk6nl0ZeO9x8lBwyilkm3jA3hmbGeh1J99bT1kpIKJT4jfAfDMZQV3M2X7nLqmrMWP8HSJz5ppmqBhUX5w7FSSCUa3AGceiI7FkmO8QIqJPJKn_R7NGAf4BDVQa0tLuvDnDDijO12V-PJtl6oeHaCCkPD3dk_1ryyNRx_uJtrBV7J1PmaCvuvanL01AAgSpKaOxsIbUMq1Pqnqp2SVgUMNfmIWS6E_bFFLlFUSre-wjbMQQ0bTMxb8fjCrAx6WQPQOtUAlM5eOOwqqGjEvP0eQSfglNE8yf6EoLRd8ejnjKvDGqrB2LMi7BebEZjaaYDQnDDH8y5VKgDBkskvXsWvzdthgxnR2wqx250KDE4of0dCdWpoTsJg9odwGiDlubOHniFUDSNejw6zAFzo6QV_6xVIItchwGsp6dGmwSMQH6ETfNhgqpivlBzz-kRmulPEX3yEON_rAYaacWRL3aw0NoMHNAGjATHR9vMI-du-pC99vH-cAF4fDVnVx0EktujhrcoQ09hNLQiODbKa8x0MYkKy47kg68jgUfffFfXPK3PkV6l5byF_U6V_ePTDxOsI9m51hrO2T8Znw-YoVhqIvZEXquMzwNp2Lo-ATrBA9hrV9FITmMI1OhdGUnuyUpIspvNG_ksOBGdKGBAbZ2ZIVebmAMaODSznoddjLyrsBuUP4oppUGbbBJVAvAQSAbCLIpbdRYiL-ndGvHRjeaNxFK3xkEg27FdDAOK9lyYOsf-oxJlf4_zLy2qQkuhKg3CnfHe0tKONcD4CcGDDxpUaYOG8ePrvIPZ5yyUW7HcP4Dw5btRfhYdvOL4LwXlNL5319TUJhTOHnEEWXBPBiLd2G_VqyHB8NswWEGwPx6_fn47JGwMDu1GrlXTEenrcw74vJL_ixmlJIxJKoAhR-JugTU2Z58bf4Ty8zTOJNym9KoUyJwFS9zVjAttl0eznlKVkawScnecS8J5YRlezALXDvAcW8Q3Snu98vfHQGSyTseicG4wR5ajUyTAfjUHClIXCBTnWtof5klxzd_W80?></g></svg>