<?plantuml 1.2026.2?><svg xmlns="http://www.w3.org/2000/svg" xmlns:xlink="http://www.w3.org/1999/xlink" contentStyleType="text/css" data-diagram-type="ACTIVITY" height="2421px" preserveAspectRatio="none" style="width:1239px;height:2421px;background:#FCFCFD;" version="1.1" viewBox="0 0 1239 2421" width="1239px" zoomAndPan="magnify"><title>Activity - databasemigration/Migration</title><defs/><g><rect fill="#FCFCFD" height="2421" style="stroke:none;stroke-width:1;" width="1239" x="0" y="0"/><g class="title" data-source-line="10"><text fill="#000000" font-family="Helvetica" font-size="14" font-weight="bold" lengthAdjust="spacing" textLength="254.3721" x="490.9087" y="30.7803">Activity - databasemigration/Migration</text></g><ellipse cx="660.6268" cy="55" fill="#1D4ED8" rx="10" ry="10" style="stroke:#222222;stroke-width:1;"/><rect fill="none" height="458" rx="8" ry="8" style="stroke:#000000;stroke-width:1.5;" width="664.1221" x="326.4279" y="75"/><path d="M448.4962,75 L448.4962,82 L438.4962,92 L326.4279,92" fill="none" style="stroke:#000000;stroke-width:1.5;"/><text fill="#000000" font-family="Helvetica" font-size="14" lengthAdjust="spacing" textLength="112.0684" x="329.4279" y="86.7803">Observe and Bind</text><rect fill="#F8FAFC" height="48" rx="8" ry="8" style="stroke:#0F172A;stroke-width:0.5;" width="304.7852" x="508.2343" y="109"/><text fill="#0F172A" font-family="Helvetica" font-size="14" lengthAdjust="spacing" textLength="136.9375" x="518.2343" y="129.7803">Start from shared flow</text><text fill="#0F172A" font-family="Helvetica" font-size="14" lengthAdjust="spacing" textLength="284.7852" x="518.2343" y="143.7803">shared/diagrams/shared-reconcile-activity.svg</text><rect fill="#F8FAFC" height="48" rx="8" ry="8" style="stroke:#0F172A;stroke-width:0.5;" width="297.0264" x="512.1136" y="177"/><text fill="#0F172A" font-family="Helvetica" font-size="14" lengthAdjust="spacing" textLength="277.0264" x="522.1136" y="197.7803">Read desired Migration spec, tracked status,</text><text fill="#0F172A" font-family="Helvetica" font-size="14" lengthAdjust="spacing" textLength="103.5303" x="522.1136" y="211.7803">and delete intent</text><polygon fill="#E2E8F0" points="531.161,245,790.0927,245,802.0927,257,790.0927,269,531.161,269,519.161,257,531.161,245" style="stroke:#1D4ED8;stroke-width:0.5;"/><text fill="#0F172A" font-family="Helvetica" font-size="14" lengthAdjust="spacing" textLength="258.9316" x="531.161" y="260.7803">"Tracked or explicit OCI identity present?"</text><text fill="#000000" font-family="Helvetica" font-size="14" lengthAdjust="spacing" textLength="21.7861" x="497.3749" y="253.7803">yes</text><text fill="#000000" font-family="Helvetica" font-size="14" lengthAdjust="spacing" textLength="15.5723" x="802.0927" y="253.7803">no</text><rect fill="#F8FAFC" height="34" rx="8" ry="8" style="stroke:#0F172A;stroke-width:0.5;" width="306.3369" x="346.4279" y="279"/><text fill="#0F172A" font-family="Helvetica" font-size="14" lengthAdjust="spacing" textLength="286.3369" x="356.4279" y="299.7803">Get the current OCI resource via GetMigration</text><rect fill="#F8FAFC" height="76" rx="8" ry="8" style="stroke:#0F172A;stroke-width:0.5;" width="289.2197" x="677.0475" y="279"/><text fill="#0F172A" font-family="Helvetica" font-size="14" lengthAdjust="spacing" textLength="259.9092" x="687.0475" y="299.7803">Resolve an existing OCI resource through</text><text fill="#0F172A" font-family="Helvetica" font-size="14" lengthAdjust="spacing" textLength="269.2197" x="687.0475" y="313.7803">ListMigrations using filters compartment_id,</text><text fill="#0F172A" font-family="Helvetica" font-size="14" lengthAdjust="spacing" textLength="196.1025" x="687.0475" y="327.7803">display_name, lifecycle_details,</text><text fill="#0F172A" font-family="Helvetica" font-size="14" lengthAdjust="spacing" textLength="87.9307" x="687.0475" y="341.7803">lifecycle_state</text><rect fill="#F8FAFC" height="48" rx="8" ry="8" style="stroke:#0F172A;stroke-width:0.5;" width="297.7852" x="672.7648" y="375"/><text fill="#0F172A" font-family="Helvetica" font-size="14" lengthAdjust="spacing" textLength="277.7852" x="682.7648" y="395.7803">Create the OCI resource via CreateMigration</text><text fill="#0F172A" font-family="Helvetica" font-size="14" lengthAdjust="spacing" textLength="205.4609" x="682.7648" y="409.7803">when no reusable match is found</text><rect fill="#F8FAFC" height="48" rx="8" ry="8" style="stroke:#0F172A;stroke-width:0.5;" width="286.8955" x="678.2096" y="443"/><text fill="#0F172A" font-family="Helvetica" font-size="14" lengthAdjust="spacing" textLength="266.8955" x="688.2096" y="463.7803">Persist the resolved or created OCI identity</text><text fill="#0F172A" font-family="Helvetica" font-size="14" lengthAdjust="spacing" textLength="63.8135" x="688.2096" y="477.7803">into status</text><polygon fill="#E2E8F0" points="660.6268,497,672.6268,509,660.6268,521,648.6268,509,660.6268,497" style="stroke:#1D4ED8;stroke-width:0.5;"/><polygon fill="#E2E8F0" points="598.4506,553,722.8031,553,734.8031,565,722.8031,577,598.4506,577,586.4506,565,598.4506,553" style="stroke:#1D4ED8;stroke-width:0.5;"/><text fill="#0F172A" font-family="Helvetica" font-size="14" lengthAdjust="spacing" textLength="124.3525" x="598.4506" y="568.7803">"Delete requested?"</text><text fill="#000000" font-family="Helvetica" font-size="14" lengthAdjust="spacing" textLength="21.7861" x="564.6644" y="561.7803">yes</text><text fill="#000000" font-family="Helvetica" font-size="14" lengthAdjust="spacing" textLength="15.5723" x="734.8031" y="561.7803">no</text><rect fill="none" height="340" rx="8" ry="8" style="stroke:#000000;stroke-width:1.5;" width="644.4814" x="11" y="587"/><path d="M61.4688,587 L61.4688,594 L51.4688,604 L11,604" fill="none" style="stroke:#000000;stroke-width:1.5;"/><text fill="#000000" font-family="Helvetica" font-size="14" lengthAdjust="spacing" textLength="40.4688" x="14" y="598.7803">Delete</text><rect fill="#F8FAFC" height="62" rx="8" ry="8" style="stroke:#0F172A;stroke-width:0.5;" width="312.5508" x="183.4688" y="621"/><text fill="#0F172A" font-family="Helvetica" font-size="14" lengthAdjust="spacing" textLength="291.0469" x="193.4688" y="641.7803">Delete path uses DeleteMigration with required</text><text fill="#0F172A" font-family="Helvetica" font-size="14" lengthAdjust="spacing" textLength="292.5508" x="193.4688" y="655.7803">via GetMigration or ListMigrations to DELETED</text><text fill="#0F172A" font-family="Helvetica" font-size="14" lengthAdjust="spacing" textLength="76.2549" x="193.4688" y="669.7803">confirmation</text><rect fill="#F8FAFC" height="48" rx="8" ry="8" style="stroke:#0F172A;stroke-width:0.5;" width="286.875" x="196.3066" y="718"/><text fill="#0F172A" font-family="Helvetica" font-size="14" lengthAdjust="spacing" textLength="224.0957" x="206.3066" y="738.7803">Confirm deletion via GetMigration or</text><text fill="#0F172A" font-family="Helvetica" font-size="14" lengthAdjust="spacing" textLength="266.875" x="206.3066" y="752.7803">ListMigrations until OCI reaches DELETED</text><polygon fill="#E2E8F0" points="191.5718,795,487.9165,795,499.9165,807,487.9165,819,191.5718,819,179.5718,807,191.5718,795" style="stroke:#1D4ED8;stroke-width:0.5;"/><text fill="#0F172A" font-family="Helvetica" font-size="14" lengthAdjust="spacing" textLength="296.3447" x="191.5718" y="810.7803">"Delete cleanup and finalizer release succeed?"</text><text fill="#000000" font-family="Helvetica" font-size="14" lengthAdjust="spacing" textLength="21.7861" x="157.7856" y="803.7803">yes</text><text fill="#000000" font-family="Helvetica" font-size="14" lengthAdjust="spacing" textLength="15.5723" x="499.9165" y="803.7803">no</text><rect fill="#F8FAFC" height="34" rx="8" ry="8" style="stroke:#0F172A;stroke-width:0.5;" width="293.1436" x="23" y="829"/><text fill="#0F172A" font-family="Helvetica" font-size="14" lengthAdjust="spacing" textLength="273.1436" x="33" y="849.7803">Remove the finalizer after delete completion</text><rect fill="#F8FAFC" height="48" rx="8" ry="8" style="stroke:#0F172A;stroke-width:0.5;" width="251.1299" x="384.3516" y="829"/><text fill="#0F172A" font-family="Helvetica" font-size="14" lengthAdjust="spacing" textLength="231.1299" x="394.3516" y="849.7803">Stay blocked until cleanup or finalizer</text><text fill="#0F172A" font-family="Helvetica" font-size="14" lengthAdjust="spacing" textLength="108.9512" x="394.3516" y="863.7803">release succeeds</text><polygon fill="#E2E8F0" points="339.7441,883,351.7441,895,339.7441,907,327.7441,895,339.7441,883" style="stroke:#1D4ED8;stroke-width:0.5;"/><ellipse cx="339.7441" cy="964.5" fill="none" rx="11" ry="11" style="stroke:#222222;stroke-width:1;"/><ellipse cx="339.7441" cy="964.5" fill="#222222" rx="6" ry="6" style="stroke:#222222;stroke-width:1;"/><rect fill="none" height="427.5" rx="8" ry="8" style="stroke:#000000;stroke-width:1.5;" width="396.4678" x="789.2756" y="587"/><path d="M940.1096,587 L940.1096,594 L930.1096,604 L789.2756,604" fill="none" style="stroke:#000000;stroke-width:1.5;"/><text fill="#000000" font-family="Helvetica" font-size="14" lengthAdjust="spacing" textLength="140.834" x="792.2756" y="598.7803">Lifecycle Classification</text><rect fill="#F8FAFC" height="48" rx="8" ry="8" style="stroke:#0F172A;stroke-width:0.5;" width="344.4678" x="809.2756" y="670"/><text fill="#0F172A" font-family="Helvetica" font-size="14" lengthAdjust="spacing" textLength="324.4678" x="819.2756" y="690.7803">Request requeue while OCI remains in ACCEPTED,</text><text fill="#0F172A" font-family="Helvetica" font-size="14" lengthAdjust="spacing" textLength="313.8789" x="819.2756" y="704.7803">CREATING, IN_PROGRESS, WAITING (+2 more)</text><ellipse cx="981.5095" cy="764" fill="none" rx="11" ry="11" style="stroke:#222222;stroke-width:1;"/><ellipse cx="981.5095" cy="764" fill="#222222" rx="6" ry="6" style="stroke:#222222;stroke-width:1;"/><polygon fill="#E2E8F0" points="895.2263,621,1067.7927,621,1079.7927,633,1067.7927,645,895.2263,645,883.2263,633,895.2263,621" style="stroke:#1D4ED8;stroke-width:0.5;"/><text fill="#000000" font-family="Helvetica" font-size="14" lengthAdjust="spacing" textLength="21.7861" x="985.5095" y="655.7803">yes</text><text fill="#0F172A" font-family="Helvetica" font-size="14" lengthAdjust="spacing" textLength="172.5664" x="895.2263" y="636.7803">"OCI state in retryable set?"</text><rect fill="#F8FAFC" height="48" rx="8" ry="8" style="stroke:#0F172A;stroke-width:0.5;" width="321.0684" x="820.9753" y="884"/><text fill="#0F172A" font-family="Helvetica" font-size="14" lengthAdjust="spacing" textLength="273.916" x="830.9753" y="904.7803">Return an unsuccessful reconcile result until</text><text fill="#0F172A" font-family="Helvetica" font-size="14" lengthAdjust="spacing" textLength="301.0684" x="830.9753" y="918.7803">OCI reaches ACTIVE, INACTIVE, SUCCEEDED</text><ellipse cx="981.5095" cy="969.5" fill="none" rx="11" ry="11" style="stroke:#222222;stroke-width:1;"/><ellipse cx="981.5095" cy="969.5" fill="#222222" rx="6" ry="6" style="stroke:#222222;stroke-width:1;"/><polygon fill="#E2E8F0" points="860.9885,835,1102.0305,835,1114.0305,847,1102.0305,859,860.9885,859,848.9885,847,860.9885,835" style="stroke:#1D4ED8;stroke-width:0.5;"/><text fill="#000000" font-family="Helvetica" font-size="14" lengthAdjust="spacing" textLength="21.7861" x="985.5095" y="869.7803">yes</text><text fill="#0F172A" font-family="Helvetica" font-size="14" lengthAdjust="spacing" textLength="241.042" x="860.9885" y="850.7803">"OCI state is outside success targets?"</text><rect fill="none" height="833" rx="8" ry="8" style="stroke:#000000;stroke-width:1.5;" width="552.708" x="675.4814" y="1024.5"/><path d="M841.9014,1024.5 L841.9014,1031.5 L831.9014,1041.5 L675.4814,1041.5" fill="none" style="stroke:#000000;stroke-width:1.5;"/><text fill="#000000" font-family="Helvetica" font-size="14" lengthAdjust="spacing" textLength="156.4199" x="678.4814" y="1036.2803">Ready and Drift Handling</text><rect fill="#F8FAFC" height="48" rx="8" ry="8" style="stroke:#0F172A;stroke-width:0.5;" width="296.2402" x="833.3894" y="1058.5"/><text fill="#0F172A" font-family="Helvetica" font-size="14" lengthAdjust="spacing" textLength="276.2402" x="843.3894" y="1079.2803">Compare live OCI state against the imported</text><text fill="#0F172A" font-family="Helvetica" font-size="14" lengthAdjust="spacing" textLength="75.4824" x="843.3894" y="1093.2803">field surface</text><rect fill="#F8FAFC" height="62" rx="8" ry="8" style="stroke:#0F172A;stroke-width:0.5;" width="302.4473" x="830.2859" y="1175.5"/><text fill="#0F172A" font-family="Helvetica" font-size="14" lengthAdjust="spacing" textLength="282.4473" x="840.2859" y="1196.2803">Reject drift before OCI mutation for force-new</text><text fill="#0F172A" font-family="Helvetica" font-size="14" lengthAdjust="spacing" textLength="241.999" x="840.2859" y="1210.2803">fields assessment_id, compartment_id,</text><text fill="#0F172A" font-family="Helvetica" font-size="14" lengthAdjust="spacing" textLength="140.8818" x="840.2859" y="1224.2803">database_combination</text><ellipse cx="981.5095" cy="1268.5" fill="none" rx="11" ry="11" style="stroke:#222222;stroke-width:1;"/><ellipse cx="981.5095" cy="1268.5" fill="#222222" rx="6" ry="6" style="stroke:#222222;stroke-width:1;"/><polygon fill="#E2E8F0" points="855.9265,1126.5,1107.0925,1126.5,1119.0925,1138.5,1107.0925,1150.5,855.9265,1150.5,843.9265,1138.5,855.9265,1126.5" style="stroke:#1D4ED8;stroke-width:0.5;"/><text fill="#000000" font-family="Helvetica" font-size="14" lengthAdjust="spacing" textLength="21.7861" x="985.5095" y="1161.2803">yes</text><text fill="#0F172A" font-family="Helvetica" font-size="14" lengthAdjust="spacing" textLength="251.166" x="855.9265" y="1142.2803">"Force-new or conflicting drift detected?"</text><polygon fill="#E2E8F0" points="871.0818,1321.5,1091.9373,1321.5,1103.9373,1333.5,1091.9373,1345.5,871.0818,1345.5,859.0818,1333.5,871.0818,1321.5" style="stroke:#1D4ED8;stroke-width:0.5;"/><text fill="#0F172A" font-family="Helvetica" font-size="14" lengthAdjust="spacing" textLength="220.8555" x="871.0818" y="1337.2803">"Supported mutable drift detected?"</text><text fill="#000000" font-family="Helvetica" font-size="14" lengthAdjust="spacing" textLength="21.7861" x="837.2957" y="1330.2803">yes</text><text fill="#000000" font-family="Helvetica" font-size="14" lengthAdjust="spacing" textLength="15.5723" x="1103.9373" y="1330.2803">no</text><rect fill="#F8FAFC" height="76" rx="8" ry="8" style="stroke:#0F172A;stroke-width:0.5;" width="301.7021" x="695.4814" y="1355.5"/><text fill="#0F172A" font-family="Helvetica" font-size="14" lengthAdjust="spacing" textLength="281.7021" x="705.4814" y="1376.2803">Apply UpdateMigration only for mutable fields</text><text fill="#0F172A" font-family="Helvetica" font-size="14" lengthAdjust="spacing" textLength="252.1436" x="705.4814" y="1390.2803">advanced_parameters, advisor_settings,</text><text fill="#0F172A" font-family="Helvetica" font-size="14" lengthAdjust="spacing" textLength="276.2881" x="705.4814" y="1404.2803">data_transfer_medium_details, defined_tags</text><text fill="#0F172A" font-family="Helvetica" font-size="14" lengthAdjust="spacing" textLength="68.8584" x="705.4814" y="1418.2803">(+11 more)</text><rect fill="#F8FAFC" height="34" rx="8" ry="8" style="stroke:#0F172A;stroke-width:0.5;" width="199.0059" x="1017.1836" y="1355.5"/><text fill="#0F172A" font-family="Helvetica" font-size="14" lengthAdjust="spacing" textLength="179.0059" x="1027.1836" y="1376.2803">Skip the no-op mutation path</text><polygon fill="#E2E8F0" points="981.5095,1437.5,993.5095,1449.5,981.5095,1461.5,969.5095,1449.5,981.5095,1437.5" style="stroke:#1D4ED8;stroke-width:0.5;"/><rect fill="#F8FAFC" height="174" rx="8" ry="8" style="stroke:#0F172A;stroke-width:0.5;" width="334.3164" x="814.3513" y="1481.5"/><text fill="#0F172A" font-family="Helvetica" font-size="14" lengthAdjust="spacing" textLength="164.2061" x="824.3513" y="1502.2803">Run provider helper hooks</text><text fill="#0F172A" font-family="Helvetica" font-size="14" lengthAdjust="spacing" textLength="219.0508" x="824.3513" y="1516.2803">create=tfresource.CreateResource,</text><text fill="#0F172A" font-family="Helvetica" font-size="14" lengthAdjust="spacing" textLength="314.3164" x="824.3513" y="1530.2803">tfresource.WaitForWorkRequestWithErrorHandling</text><text fill="#0F172A" font-family="Helvetica" font-size="14" lengthAdjust="spacing" textLength="219.4268" x="824.3513" y="1544.2803">entity=migration action=CREATED;</text><text fill="#0F172A" font-family="Helvetica" font-size="14" lengthAdjust="spacing" textLength="226.085" x="824.3513" y="1558.2803">update=tfresource.UpdateResource,</text><text fill="#0F172A" font-family="Helvetica" font-size="14" lengthAdjust="spacing" textLength="314.3164" x="824.3513" y="1572.2803">tfresource.WaitForWorkRequestWithErrorHandling</text><text fill="#0F172A" font-family="Helvetica" font-size="14" lengthAdjust="spacing" textLength="219.4268" x="824.3513" y="1586.2803">entity=migration action=UPDATED;</text><text fill="#0F172A" font-family="Helvetica" font-size="14" lengthAdjust="spacing" textLength="216.7334" x="824.3513" y="1600.2803">delete=tfresource.DeleteResource,</text><text fill="#0F172A" font-family="Helvetica" font-size="14" lengthAdjust="spacing" textLength="314.3164" x="824.3513" y="1614.2803">tfresource.WaitForWorkRequestWithErrorHandling</text><text fill="#0F172A" font-family="Helvetica" font-size="14" lengthAdjust="spacing" textLength="273.9229" x="824.3513" y="1628.2803">entity=migration action=DELETED when the</text><text fill="#0F172A" font-family="Helvetica" font-size="14" lengthAdjust="spacing" textLength="220.2334" x="824.3513" y="1642.2803">matching field-driven path executes</text><rect fill="#F8FAFC" height="48" rx="8" ry="8" style="stroke:#0F172A;stroke-width:0.5;" width="290.751" x="836.134" y="1675.5"/><text fill="#0F172A" font-family="Helvetica" font-size="14" lengthAdjust="spacing" textLength="270.751" x="846.134" y="1696.2803">Return success for the ACTIVE, INACTIVE,</text><text fill="#0F172A" font-family="Helvetica" font-size="14" lengthAdjust="spacing" textLength="176.6064" x="846.134" y="1710.2803">SUCCEEDED success state</text><rect fill="#F8FAFC" height="48" rx="8" ry="8" style="stroke:#0F172A;stroke-width:0.5;" width="279.1299" x="841.9446" y="1743.5"/><text fill="#0F172A" font-family="Helvetica" font-size="14" lengthAdjust="spacing" textLength="259.1299" x="851.9446" y="1764.2803">Project required status and finalizer policy</text><text fill="#0F172A" font-family="Helvetica" font-size="14" lengthAdjust="spacing" textLength="174.3027" x="851.9446" y="1778.2803">retain-until-confirmed-delete</text><rect fill="#F8FAFC" height="34" rx="8" ry="8" style="stroke:#0F172A;stroke-width:0.5;" width="313.4189" x="824.8" y="1811.5"/><text fill="#0F172A" font-family="Helvetica" font-size="14" lengthAdjust="spacing" textLength="293.4189" x="834.8" y="1832.2803">Requeue on provisioning, updating, terminating</text><path d="M691.6268,1867.5 L691.6268,2134.5 L671.6268,2138.5 L691.6268,2142.5 L691.6268,2409.5 A0,0 0 0 0 691.6268,2409.5 L1054.1776,2409.5 A0,0 0 0 0 1054.1776,2409.5 L1054.1776,1877.5 L1044.1776,1867.5 L691.6268,1867.5 A0,0 0 0 0 691.6268,1867.5" fill="#FFF7D6" style="stroke:#B45309;stroke-width:0.5;"/><path d="M1044.1776,1867.5 L1044.1776,1877.5 L1054.1776,1877.5 L1044.1776,1867.5" fill="#FFF7D6" style="stroke:#B45309;stroke-width:0.5;"/><text fill="#334155" font-family="Helvetica" font-size="14" lengthAdjust="spacing" textLength="101.165" x="697.6268" y="1883.2803">shared diagram:</text><text fill="#334155" font-family="Helvetica" font-size="14" lengthAdjust="spacing" textLength="284.7852" x="697.6268" y="1897.2803">shared/diagrams/shared-reconcile-activity.svg</text><text fill="#334155" font-family="Helvetica" font-size="14" lengthAdjust="spacing" textLength="265.3438" x="697.6268" y="1911.2803">Start from the shared reconcile activity and</text><text fill="#334155" font-family="Helvetica" font-size="14" lengthAdjust="spacing" textLength="273.8955" x="697.6268" y="1925.2803">specialize provider-backed CRUD, wait, and</text><text fill="#334155" font-family="Helvetica" font-size="14" lengthAdjust="spacing" textLength="182.875" x="697.6268" y="1939.2803">status-projection details here.</text><text fill="#334155" font-family="Helvetica" font-size="14" lengthAdjust="spacing" textLength="229.5371" x="697.6268" y="1953.2803">Controller-local activity diagrams add</text><text fill="#334155" font-family="Helvetica" font-size="14" lengthAdjust="spacing" textLength="238.8955" x="697.6268" y="1967.2803">list-lookup hints, secret policies, delete</text><text fill="#334155" font-family="Helvetica" font-size="14" lengthAdjust="spacing" textLength="200.0332" x="697.6268" y="1981.2803">handling, and open formal gaps.</text><text fill="#334155" font-family="Helvetica" font-size="14" lengthAdjust="spacing" textLength="281.709" x="697.6268" y="1995.2803">archetype batch: Generated service-manager</text><text fill="#334155" font-family="Helvetica" font-size="14" lengthAdjust="spacing" textLength="291.0469" x="697.6268" y="2009.2803">controllers specialize the shared reconcile path</text><text fill="#334155" font-family="Helvetica" font-size="14" lengthAdjust="spacing" textLength="189.8477" x="697.6268" y="2023.2803">with formal runtime ownership.</text><text fill="#334155" font-family="Helvetica" font-size="14" lengthAdjust="spacing" textLength="167.3096" x="697.6268" y="2037.2803">service: databasemigration</text><text fill="#334155" font-family="Helvetica" font-size="14" lengthAdjust="spacing" textLength="91.041" x="697.6268" y="2051.2803">slug: migration</text><text fill="#334155" font-family="Helvetica" font-size="14" lengthAdjust="spacing" textLength="91.041" x="697.6268" y="2065.2803">kind: Migration</text><text fill="#334155" font-family="Helvetica" font-size="14" lengthAdjust="spacing" textLength="241.2402" x="697.6268" y="2079.2803">archetype: generated-service-manager</text><text fill="#334155" font-family="Helvetica" font-size="14" lengthAdjust="spacing" textLength="156.4063" x="697.6268" y="2093.2803">status/finalizer: required /</text><text fill="#334155" font-family="Helvetica" font-size="14" lengthAdjust="spacing" textLength="174.3027" x="697.6268" y="2107.2803">retain-until-confirmed-delete</text><text fill="#334155" font-family="Helvetica" font-size="14" lengthAdjust="spacing" textLength="272.3984" x="697.6268" y="2121.2803">requeue: provisioning, updating, terminating</text><text fill="#334155" font-family="Helvetica" font-size="14" lengthAdjust="spacing" textLength="302.6406" x="697.6268" y="2135.2803">provider states: create ACCEPTED, CREATING,</text><text fill="#334155" font-family="Helvetica" font-size="14" lengthAdjust="spacing" textLength="341.5508" x="697.6268" y="2149.2803">IN_PROGRESS, WAITING; update UPDATING; delete</text><text fill="#334155" font-family="Helvetica" font-size="14" lengthAdjust="spacing" textLength="70.0137" x="697.6268" y="2163.2803">DELETING</text><text fill="#334155" font-family="Helvetica" font-size="14" lengthAdjust="spacing" textLength="240.4746" x="697.6268" y="2177.2803">supported drift: advanced_parameters,</text><text fill="#334155" font-family="Helvetica" font-size="14" lengthAdjust="spacing" textLength="301.1641" x="697.6268" y="2191.2803">advisor_settings, data_transfer_medium_details,</text><text fill="#334155" font-family="Helvetica" font-size="14" lengthAdjust="spacing" textLength="152.9268" x="697.6268" y="2205.2803">defined_tags (+11 more)</text><text fill="#334155" font-family="Helvetica" font-size="14" lengthAdjust="spacing" textLength="230.3301" x="697.6268" y="2219.2803">reject before mutate: force-new fields</text><text fill="#334155" font-family="Helvetica" font-size="14" lengthAdjust="spacing" textLength="205.4268" x="697.6268" y="2233.2803">assessment_id, compartment_id,</text><text fill="#334155" font-family="Helvetica" font-size="14" lengthAdjust="spacing" textLength="140.8818" x="697.6268" y="2247.2803">database_combination</text><text fill="#334155" font-family="Helvetica" font-size="14" lengthAdjust="spacing" textLength="144.751" x="697.6268" y="2261.2803">create-only fields: none</text><text fill="#334155" font-family="Helvetica" font-size="14" lengthAdjust="spacing" textLength="291.0537" x="697.6268" y="2275.2803">list lookup: oci_database_migration_migrations</text><text fill="#334155" font-family="Helvetica" font-size="14" lengthAdjust="spacing" textLength="235.7715" x="697.6268" y="2289.2803">filters compartment_id, display_name,</text><text fill="#334155" font-family="Helvetica" font-size="14" lengthAdjust="spacing" textLength="193.7578" x="697.6268" y="2303.2803">lifecycle_details, lifecycle_state</text><text fill="#334155" font-family="Helvetica" font-size="14" lengthAdjust="spacing" textLength="89.4961" x="697.6268" y="2317.2803">conflicts: none</text><text fill="#334155" font-family="Helvetica" font-size="14" lengthAdjust="spacing" textLength="104.3164" x="697.6268" y="2331.2803">open gaps: none</text><text fill="#334155" font-family="Helvetica" font-size="14" lengthAdjust="spacing" textLength="296.4746" x="697.6268" y="2345.2803">Work-request-backed generatedruntime overlay</text><text fill="#334155" font-family="Helvetica" font-size="14" lengthAdjust="spacing" textLength="293.3369" x="697.6268" y="2359.2803">with explicit MYSQL/ORACLE request builders,</text><text fill="#334155" font-family="Helvetica" font-size="14" lengthAdjust="spacing" textLength="245.916" x="697.6268" y="2373.2803">conservative bind-before-create lookup,</text><text fill="#334155" font-family="Helvetica" font-size="14" lengthAdjust="spacing" textLength="274.7227" x="697.6268" y="2387.2803">helper-surface rejection, and required delete</text><text fill="#334155" font-family="Helvetica" font-size="14" lengthAdjust="spacing" textLength="80.1445" x="697.6268" y="2401.2803">confirmation.</text><ellipse cx="660.6268" cy="2138.5" fill="none" rx="11" ry="11" style="stroke:#222222;stroke-width:1;"/><ellipse cx="660.6268" cy="2138.5" fill="#222222" rx="6" ry="6" style="stroke:#222222;stroke-width:1;"/><line style="stroke:#0F172A;stroke-width:1;" x1="660.6268" x2="660.6268" y1="157" y2="177"/><polygon fill="#0F172A" points="656.6268,167,660.6268,177,664.6268,167,660.6268,171" style="stroke:#0F172A;stroke-width:1;"/><line style="stroke:#0F172A;stroke-width:1;" x1="821.6573" x2="821.6573" y1="355" y2="375"/><polygon fill="#0F172A" points="817.6573,365,821.6573,375,825.6573,365,821.6573,369" style="stroke:#0F172A;stroke-width:1;"/><line style="stroke:#0F172A;stroke-width:1;" x1="821.6573" x2="821.6573" y1="423" y2="443"/><polygon fill="#0F172A" points="817.6573,433,821.6573,443,825.6573,433,821.6573,437" style="stroke:#0F172A;stroke-width:1;"/><line style="stroke:#0F172A;stroke-width:1;" x1="519.161" x2="499.5963" y1="257" y2="257"/><line style="stroke:#0F172A;stroke-width:1;" x1="499.5963" x2="499.5963" y1="257" y2="279"/><polygon fill="#0F172A" points="495.5963,269,499.5963,279,503.5963,269,499.5963,273" style="stroke:#0F172A;stroke-width:1;"/><line style="stroke:#0F172A;stroke-width:1;" x1="802.0927" x2="821.6573" y1="257" y2="257"/><line style="stroke:#0F172A;stroke-width:1;" x1="821.6573" x2="821.6573" y1="257" y2="279"/><polygon fill="#0F172A" points="817.6573,269,821.6573,279,825.6573,269,821.6573,273" style="stroke:#0F172A;stroke-width:1;"/><line style="stroke:#0F172A;stroke-width:1;" x1="499.5963" x2="499.5963" y1="313" y2="509"/><line style="stroke:#0F172A;stroke-width:1;" x1="499.5963" x2="648.6268" y1="509" y2="509"/><polygon fill="#0F172A" points="638.6268,505,648.6268,509,638.6268,513,642.6268,509" style="stroke:#0F172A;stroke-width:1;"/><line style="stroke:#0F172A;stroke-width:1;" x1="821.6573" x2="821.6573" y1="491" y2="509"/><line style="stroke:#0F172A;stroke-width:1;" x1="821.6573" x2="672.6268" y1="509" y2="509"/><polygon fill="#0F172A" points="682.6268,505,672.6268,509,682.6268,513,678.6268,509" style="stroke:#0F172A;stroke-width:1;"/><line style="stroke:#0F172A;stroke-width:1;" x1="660.6268" x2="660.6268" y1="225" y2="245"/><polygon fill="#0F172A" points="656.6268,235,660.6268,245,664.6268,235,660.6268,239" style="stroke:#0F172A;stroke-width:1;"/><line style="stroke:#0F172A;stroke-width:1;" x1="660.6268" x2="660.6268" y1="65" y2="109"/><polygon fill="#0F172A" points="656.6268,99,660.6268,109,664.6268,99,660.6268,103" style="stroke:#0F172A;stroke-width:1;"/><line style="stroke:#0F172A;stroke-width:1;" x1="339.7441" x2="339.7441" y1="683" y2="718"/><polygon fill="#0F172A" points="335.7441,708,339.7441,718,343.7441,708,339.7441,712" style="stroke:#0F172A;stroke-width:1;"/><line style="stroke:#0F172A;stroke-width:1;" x1="179.5718" x2="169.5718" y1="807" y2="807"/><line style="stroke:#0F172A;stroke-width:1;" x1="169.5718" x2="169.5718" y1="807" y2="829"/><polygon fill="#0F172A" points="165.5718,819,169.5718,829,173.5718,819,169.5718,823" style="stroke:#0F172A;stroke-width:1;"/><line style="stroke:#0F172A;stroke-width:1;" x1="499.9165" x2="509.9165" y1="807" y2="807"/><line style="stroke:#0F172A;stroke-width:1;" x1="509.9165" x2="509.9165" y1="807" y2="829"/><polygon fill="#0F172A" points="505.9165,819,509.9165,829,513.9165,819,509.9165,823" style="stroke:#0F172A;stroke-width:1;"/><line style="stroke:#0F172A;stroke-width:1;" x1="169.5718" x2="169.5718" y1="863" y2="895"/><line style="stroke:#0F172A;stroke-width:1;" x1="169.5718" x2="327.7441" y1="895" y2="895"/><polygon fill="#0F172A" points="317.7441,891,327.7441,895,317.7441,899,321.7441,895" style="stroke:#0F172A;stroke-width:1;"/><line style="stroke:#0F172A;stroke-width:1;" x1="509.9165" x2="509.9165" y1="877" y2="895"/><line style="stroke:#0F172A;stroke-width:1;" x1="509.9165" x2="351.7441" y1="895" y2="895"/><polygon fill="#0F172A" points="361.7441,891,351.7441,895,361.7441,899,357.7441,895" style="stroke:#0F172A;stroke-width:1;"/><line style="stroke:#0F172A;stroke-width:1;" x1="339.7441" x2="339.7441" y1="766" y2="795"/><polygon fill="#0F172A" points="335.7441,785,339.7441,795,343.7441,785,339.7441,789" style="stroke:#0F172A;stroke-width:1;"/><line style="stroke:#0F172A;stroke-width:1;" x1="339.7441" x2="339.7441" y1="907" y2="953.5"/><polygon fill="#0F172A" points="335.7441,943.5,339.7441,953.5,343.7441,943.5,339.7441,947.5" style="stroke:#0F172A;stroke-width:1;"/><line style="stroke:#0F172A;stroke-width:1;" x1="981.5095" x2="981.5095" y1="718" y2="753"/><polygon fill="#0F172A" points="977.5095,743,981.5095,753,985.5095,743,981.5095,747" style="stroke:#0F172A;stroke-width:1;"/><line style="stroke:#0F172A;stroke-width:1;" x1="981.5095" x2="981.5095" y1="645" y2="670"/><polygon fill="#0F172A" points="977.5095,660,981.5095,670,985.5095,660,981.5095,664" style="stroke:#0F172A;stroke-width:1;"/><line style="stroke:#0F172A;stroke-width:1;" x1="1079.7927" x2="1163.7434" y1="633" y2="633"/><polygon fill="#0F172A" points="1159.7434,709.5,1163.7434,719.5,1167.7434,709.5,1163.7434,713.5" style="stroke:#0F172A;stroke-width:1;"/><line style="stroke:#0F172A;stroke-width:1;" x1="1163.7434" x2="1163.7434" y1="633" y2="800"/><line style="stroke:#0F172A;stroke-width:1;" x1="1163.7434" x2="981.5095" y1="800" y2="800"/><line style="stroke:#0F172A;stroke-width:1;" x1="981.5095" x2="981.5095" y1="800" y2="835"/><polygon fill="#0F172A" points="977.5095,825,981.5095,835,985.5095,825,981.5095,829" style="stroke:#0F172A;stroke-width:1;"/><line style="stroke:#0F172A;stroke-width:1;" x1="981.5095" x2="981.5095" y1="932" y2="958.5"/><polygon fill="#0F172A" points="977.5095,948.5,981.5095,958.5,985.5095,948.5,981.5095,952.5" style="stroke:#0F172A;stroke-width:1;"/><line style="stroke:#0F172A;stroke-width:1;" x1="981.5095" x2="981.5095" y1="859" y2="884"/><polygon fill="#0F172A" points="977.5095,874,981.5095,884,985.5095,874,981.5095,878" style="stroke:#0F172A;stroke-width:1;"/><line style="stroke:#0F172A;stroke-width:1;" x1="1114.0305" x2="1152.0437" y1="847" y2="847"/><polygon fill="#0F172A" points="1148.0437,923.5,1152.0437,933.5,1156.0437,923.5,1152.0437,927.5" style="stroke:#0F172A;stroke-width:1;"/><line style="stroke:#0F172A;stroke-width:1;" x1="1152.0437" x2="1152.0437" y1="847" y2="1002.5"/><line style="stroke:#0F172A;stroke-width:1;" x1="1152.0437" x2="981.5095" y1="1002.5" y2="1002.5"/><line style="stroke:#0F172A;stroke-width:1;" x1="981.5095" x2="981.5095" y1="1002.5" y2="1058.5"/><polygon fill="#0F172A" points="977.5095,1048.5,981.5095,1058.5,985.5095,1048.5,981.5095,1052.5" style="stroke:#0F172A;stroke-width:1;"/><line style="stroke:#0F172A;stroke-width:1;" x1="981.5095" x2="981.5095" y1="1237.5" y2="1257.5"/><polygon fill="#0F172A" points="977.5095,1247.5,981.5095,1257.5,985.5095,1247.5,981.5095,1251.5" style="stroke:#0F172A;stroke-width:1;"/><line style="stroke:#0F172A;stroke-width:1;" x1="981.5095" x2="981.5095" y1="1150.5" y2="1175.5"/><polygon fill="#0F172A" points="977.5095,1165.5,981.5095,1175.5,985.5095,1165.5,981.5095,1169.5" style="stroke:#0F172A;stroke-width:1;"/><line style="stroke:#0F172A;stroke-width:1;" x1="1119.0925" x2="1142.7332" y1="1138.5" y2="1138.5"/><polygon fill="#0F172A" points="1138.7332,1222,1142.7332,1232,1146.7332,1222,1142.7332,1226" style="stroke:#0F172A;stroke-width:1;"/><line style="stroke:#0F172A;stroke-width:1;" x1="1142.7332" x2="1142.7332" y1="1138.5" y2="1301.5"/><line style="stroke:#0F172A;stroke-width:1;" x1="1142.7332" x2="981.5095" y1="1301.5" y2="1301.5"/><line style="stroke:#0F172A;stroke-width:1;" x1="981.5095" x2="981.5095" y1="1301.5" y2="1321.5"/><polygon fill="#0F172A" points="977.5095,1311.5,981.5095,1321.5,985.5095,1311.5,981.5095,1315.5" style="stroke:#0F172A;stroke-width:1;"/><line style="stroke:#0F172A;stroke-width:1;" x1="981.5095" x2="981.5095" y1="1106.5" y2="1126.5"/><polygon fill="#0F172A" points="977.5095,1116.5,981.5095,1126.5,985.5095,1116.5,981.5095,1120.5" style="stroke:#0F172A;stroke-width:1;"/><line style="stroke:#0F172A;stroke-width:1;" x1="859.0818" x2="846.3325" y1="1333.5" y2="1333.5"/><line style="stroke:#0F172A;stroke-width:1;" x1="846.3325" x2="846.3325" y1="1333.5" y2="1355.5"/><polygon fill="#0F172A" points="842.3325,1345.5,846.3325,1355.5,850.3325,1345.5,846.3325,1349.5" style="stroke:#0F172A;stroke-width:1;"/><line style="stroke:#0F172A;stroke-width:1;" x1="1103.9373" x2="1116.6865" y1="1333.5" y2="1333.5"/><line style="stroke:#0F172A;stroke-width:1;" x1="1116.6865" x2="1116.6865" y1="1333.5" y2="1355.5"/><polygon fill="#0F172A" points="1112.6865,1345.5,1116.6865,1355.5,1120.6865,1345.5,1116.6865,1349.5" style="stroke:#0F172A;stroke-width:1;"/><line style="stroke:#0F172A;stroke-width:1;" x1="846.3325" x2="846.3325" y1="1431.5" y2="1449.5"/><line style="stroke:#0F172A;stroke-width:1;" x1="846.3325" x2="969.5095" y1="1449.5" y2="1449.5"/><polygon fill="#0F172A" points="959.5095,1445.5,969.5095,1449.5,959.5095,1453.5,963.5095,1449.5" style="stroke:#0F172A;stroke-width:1;"/><line style="stroke:#0F172A;stroke-width:1;" x1="1116.6865" x2="1116.6865" y1="1389.5" y2="1449.5"/><line style="stroke:#0F172A;stroke-width:1;" x1="1116.6865" x2="993.5095" y1="1449.5" y2="1449.5"/><polygon fill="#0F172A" points="1003.5095,1445.5,993.5095,1449.5,1003.5095,1453.5,999.5095,1449.5" style="stroke:#0F172A;stroke-width:1;"/><line style="stroke:#0F172A;stroke-width:1;" x1="981.5095" x2="981.5095" y1="1461.5" y2="1481.5"/><polygon fill="#0F172A" points="977.5095,1471.5,981.5095,1481.5,985.5095,1471.5,981.5095,1475.5" style="stroke:#0F172A;stroke-width:1;"/><line style="stroke:#0F172A;stroke-width:1;" x1="981.5095" x2="981.5095" y1="1655.5" y2="1675.5"/><polygon fill="#0F172A" points="977.5095,1665.5,981.5095,1675.5,985.5095,1665.5,981.5095,1669.5" style="stroke:#0F172A;stroke-width:1;"/><line style="stroke:#0F172A;stroke-width:1;" x1="981.5095" x2="981.5095" y1="1723.5" y2="1743.5"/><polygon fill="#0F172A" points="977.5095,1733.5,981.5095,1743.5,985.5095,1733.5,981.5095,1737.5" style="stroke:#0F172A;stroke-width:1;"/><line style="stroke:#0F172A;stroke-width:1;" x1="981.5095" x2="981.5095" y1="1791.5" y2="1811.5"/><polygon fill="#0F172A" points="977.5095,1801.5,981.5095,1811.5,985.5095,1801.5,981.5095,1805.5" style="stroke:#0F172A;stroke-width:1;"/><line style="stroke:#0F172A;stroke-width:1;" x1="586.4506" x2="339.7441" y1="565" y2="565"/><line style="stroke:#0F172A;stroke-width:1;" x1="339.7441" x2="339.7441" y1="565" y2="621"/><polygon fill="#0F172A" points="335.7441,611,339.7441,621,343.7441,611,339.7441,615" style="stroke:#0F172A;stroke-width:1;"/><line style="stroke:#0F172A;stroke-width:1;" x1="734.8031" x2="981.5095" y1="565" y2="565"/><line style="stroke:#0F172A;stroke-width:1;" x1="981.5095" x2="981.5095" y1="565" y2="621"/><polygon fill="#0F172A" points="977.5095,611,981.5095,621,985.5095,611,981.5095,615" style="stroke:#0F172A;stroke-width:1;"/><line style="stroke:#0F172A;stroke-width:1;" x1="981.5095" x2="981.5095" y1="1845.5" y2="1862.5"/><line style="stroke:#0F172A;stroke-width:1;" x1="981.5095" x2="660.6268" y1="1862.5" y2="1862.5"/><line style="stroke:#0F172A;stroke-width:1;" x1="660.6268" x2="660.6268" y1="1862.5" y2="2127.5"/><polygon fill="#0F172A" points="656.6268,2117.5,660.6268,2127.5,664.6268,2117.5,660.6268,2121.5" style="stroke:#0F172A;stroke-width:1;"/><line style="stroke:#0F172A;stroke-width:1;" x1="660.6268" x2="660.6268" y1="521" y2="553"/><polygon fill="#0F172A" points="656.6268,543,660.6268,553,664.6268,543,660.6268,547" style="stroke:#0F172A;stroke-width:1;"/><?plantuml-src jLXTRziu5dtdho0wBod6Jff-hu9YaN7SJe1CcqdQBHOmOD3IbSsDH6f8oXxFeFzz3ZyaAxQts7qOzA4MILtUU-wvvrx5FaZL22DgRbUYq1kfbhmKbILc-vs5o1-MHhUgcEXA6_v3cUDVCJXHK2dQohtNodqKDV6VgLgJaxauVkPU_a7y_ELWKnYZDydwi_BypVFXcqex-kd0Xx9yKxpUFwLDGIQTMBnyzUBPF_PE-ElJ_eiNByzVlHhi1_EvDeeCFt_Dd7GLySlSoRLqMpxcXN1Y8IpLScc4argT_TBz6eRIlV0duqUWUrkAClSxGrTJo9oNE_VwjKAAMglY005wJc_BPuC3GuldnKigtkustnynR9qmRlyyzVRxSmknP_KR2wyo10oG43v_ycbXoQo92rNmdwGgdY3yxDwVugNHWLs62bvMUZDJyU4ChW6-sfx5vx6XNAjSLZJkC3orw-K5o-v85E2FbTv4Zpct3UKZxWo0mJfSSgqTpPHteQ2A776f72btmMJ9JvvyJWSH2FtUL3ANZd-QN7DPu8nFM6F8ukS_dppbRaMAdsp9FcNP1tB-cUUjCTWEx-2aRarEV2q5nu7UgGj6A1v-elHJxxVLLG05DqhhV74zUjkjaD3bQgPkiDlRiBoreGvbvSXOdklQ8rtZyhai464XRLE9xLoXraQyaYNbsxoYUK5EoCfZi5lpi10md1Z2Zn38GG1nhxz_fZO-VALnghLYWIgeXSjNN5eG50I4kLiu1f-3FHF33CZcmLJn2DYPGXvqIX00WlybE1IISXKJPUYtbYnUt0D_mB1uCl0glTG8jm9KP7bSs35Z8x7ZRNh6pDH-ahoZUuZ3lwlfpVJpz6gcmC9IcZhbCvl4nyWf__OHSuSPHEHLGbhaA-zZD7_nA6vaIAYs2MLJIYKgAAF1ArW6YsoRvtI02MXLwtLCvUuTKO8h7UyzOwApZ_Y8UjpoHQL36KGFEmU0I6zhflOS62JDEjqCJ0xoSzDHZaygOQqi8Vz-nsSiXEp126n4MI94PxQ1MfRSOO213P4LBV7D2gAGmAo51BomS3cPJ6y1ADW-kPjUVhx--674hp_ER-y-VRYRtj-F-DVBQx_AJtvypcjjwEb5SZ_4ik-JvRfr5foDKLjmGfWbENledMkDyaNTgdIqR2lUgvUl1pIw2F1C3JbmEVby_Q-fTxFxTVy5OKolF2y6ldqR0klLRniOScLawVZF-5b17q8fJ88s44HW7H6AqOYbXocMfwmRRPolWr9I1Q5iJIboIaHyhw42OqMRKBsWEeGn25KHBeEaKEwESV0_M4-75bG2td1ztRfO4wLdL6SxNMqvY06uEYKxecofnSwnim0V8uNtitRVDZ6aS9qdqVUTlMoQQik_DCLGvRXMMFHkTaQYZsWWnLged8fvQEZaDNZ4iIYjDdFGrSDZaxDpj1zbIpBpcWhPrhq6-tb7AXXnOWcR9p-UdtSa75RaWsn2afGUwsQ7dfUshkYoknOBHg_1JSDNL3N-FwqVO3RAxJjNTdf-6hNyBZt2oy7ULo4nVvclsZoa4liAePnYzZ8TgMOgQlQxViW90urMxqAHWQSpo4MnTsc4zc-uzCljLReqAjlmqYYXVyEbIQbvw898pao5zXTRCYWo1jlM59E4navvwyXUzCBGoOUdba_jGT7FL5_r_U6kJTyQ7GghQrwfQ-urY4QZIhTUfq4sDGvACqvj2uDKnEeY2Ia4L2S2MOI7C4Oyf33y0hlhK6WAazQtHBbGS7vSvaOkLuwbwIqDR1dxlmOuDXW3FHx9s4ul-uaPGJ8_rCaGPi_vyI8ERfExBrSZla5gH_5eW6RSHCXy0bFneKWCdJ8qRcTqLS42UfweTXTrZgEg2rQXS-E0Va0RH98TQjSI2ij5c2M5OlQ8ibNYJhYVwuQ2pjKmlHIDFMN2GERTjY7Cp61CXZ417nDX8FBZiOGQraA99HcMzyvPFeZvA42UQ2pCDEasupEExoozWNcxaiqfI_QpmwyKPgjscV7TCpvLYcmtH--yplYoytUyxsy4-wpdOBQZw1dxBWzPQkFP_y91rWjTg0YRfObor-vvt-tPiMv_4UqI3z8H5f8ReQonm6pVFaBRoFWnmMS7Wi-_g_TigFTy9_U8FXHqwf51uG55tnfJrs7VxupiM6Da4PfnR6J1J8P6eYXGcaTAPrpdSjw_thDWzyko__AXmHzzPx33xmo-zvd1klcXyoDKY2-DzEprU9nc_QwgUyhrf5wJmQsHyFsNsY__ll_rvkpJtUNaPjfzBl15AwiYP0itUyOY8Cn10AWOHy37YJuHZ16BxNESPY0UamCGOaNtb4wK6Nu9d7fj37z3-0i0?></g></svg>